<?xml version="1.0" standalone="no"?>
<!DOCTYPE svg PUBLIC "-//W3C//DTD SVG 20010904//EN"
 "http://www.w3.org/TR/2001/REC-SVG-20010904/DTD/svg10.dtd">
<svg version="1.0" xmlns="http://www.w3.org/2000/svg"
 width="1200.000000pt" height="1200.000000pt" viewBox="0 0 1200.000000 1200.000000"
 preserveAspectRatio="xMidYMid meet">
<metadata>
Created by potrace 1.14, written by Peter Selinger 2001-2017
</metadata>
<g transform="translate(0.000000,1200.000000) scale(0.100000,-0.100000)"
fill="#000000" stroke="none">
<path d="M1304 11988 c26 -7 61 -32 109 -79 39 -38 77 -69 84 -69 7 0 23 12
37 27 22 23 28 25 58 17 25 -7 43 -25 74 -72 59 -90 80 -110 128 -117 22 -4
55 -17 71 -30 17 -12 57 -31 90 -41 33 -10 67 -24 76 -31 15 -12 46 -21 82
-22 14 -1 17 -6 12 -21 -5 -15 0 -23 22 -32 15 -7 46 -30 68 -52 27 -26 57
-43 90 -52 47 -12 53 -11 100 11 40 20 52 22 65 12 23 -19 139 -73 187 -87 23
-7 57 -10 77 -6 41 8 142 -7 200 -30 21 -8 60 -39 87 -69 57 -61 61 -62 219
-70 133 -7 187 -17 232 -45 18 -11 41 -20 50 -20 10 0 49 -31 87 -70 39 -38
76 -70 82 -70 7 0 21 -7 30 -16 13 -12 48 -19 119 -24 95 -6 102 -8 133 -38
40 -39 57 -39 127 -2 30 16 67 35 83 41 15 6 27 17 27 25 0 23 38 54 68 54 15
0 36 6 47 13 24 16 105 40 112 33 3 -2 27 9 55 26 27 17 66 32 87 34 20 1 43
4 51 6 9 2 14 -3 11 -12 -1 -8 -4 -25 -5 -37 0 -13 -6 -23 -12 -23 -6 0 -17
-7 -24 -15 -7 -8 -16 -13 -20 -10 -5 3 -11 1 -15 -5 -4 -6 -11 -8 -16 -5 -5 4
-9 -1 -9 -11 0 -12 6 -15 27 -11 14 3 44 -1 66 -9 22 -8 45 -11 51 -6 6 4 29
8 51 7 32 0 40 -4 43 -20 2 -11 6 -27 10 -35 3 -8 6 -22 6 -30 1 -12 14 -14
64 -12 52 2 64 -1 69 -15 3 -10 12 -25 20 -34 11 -13 12 -29 5 -73 -10 -61 -6
-68 38 -72 39 -4 62 19 65 66 1 22 5 43 8 47 4 3 4 16 1 28 -4 16 0 24 14 27
28 8 52 -15 49 -48 -2 -23 2 -30 20 -32 13 -2 27 -15 35 -33 7 -16 16 -29 20
-29 5 0 30 -60 33 -80 0 -3 9 -17 19 -33 16 -24 24 -27 62 -24 24 2 49 9 56
14 7 6 38 16 68 23 30 7 72 21 93 31 54 27 96 24 148 -10 68 -43 109 -94 109
-135 0 -18 7 -46 14 -62 8 -15 13 -31 11 -35 -3 -4 4 -9 15 -12 14 -4 18 -10
13 -22 -6 -16 -7 -17 -18 -1 -12 16 -35 22 -35 9 0 -5 -16 -26 -35 -47 -19
-22 -35 -43 -35 -46 0 -4 -21 -15 -46 -25 -37 -14 -53 -16 -81 -7 -31 9 -40 8
-73 -13 -21 -13 -41 -33 -45 -44 -11 -37 -60 -62 -120 -64 -30 -1 -55 -4 -55
-7 0 -3 7 -14 15 -24 8 -11 15 -30 15 -42 0 -12 6 -26 13 -31 25 -20 121 -53
151 -53 39 0 94 -33 105 -63 12 -31 -23 -131 -64 -182 -68 -86 -81 -95 -112
-86 -15 5 -63 11 -107 14 l-78 4 -31 -33 c-16 -19 -36 -34 -43 -34 -14 0 -47
-54 -42 -67 6 -15 -129 -13 -158 2 -16 8 -37 15 -47 15 -22 0 -72 -26 -104
-54 -37 -31 -76 -30 -108 4 -16 17 -35 30 -42 30 -16 0 -62 -49 -63 -67 0 -20
-15 -22 -56 -8 -28 9 -40 20 -44 37 -7 36 -45 78 -69 78 -12 0 -21 4 -21 9 0
6 -12 16 -27 23 -36 17 -39 40 -13 89 17 34 19 44 8 57 -7 8 -12 17 -10 19 9
12 -1 24 -17 20 -23 -6 -61 26 -61 50 0 9 -10 27 -22 40 -22 23 -22 24 -6 85
10 34 15 65 12 68 -3 2 -18 -10 -32 -28 -25 -30 -31 -32 -80 -31 -37 2 -57 -2
-63 -12 -12 -19 -11 -46 2 -54 5 -4 14 -18 19 -31 5 -13 29 -37 52 -53 105
-74 114 -94 46 -111 -98 -25 -128 -49 -128 -102 0 -26 -2 -28 -27 -22 -32 8
-38 12 -38 26 0 25 -56 17 -89 -13 -19 -16 -40 -29 -49 -29 -28 0 -76 26 -97
52 -41 53 -49 88 -39 168 5 41 6 82 3 92 -5 18 12 82 29 106 5 6 18 12 28 12
25 0 24 20 -3 60 -18 26 -34 36 -73 44 -47 10 -62 11 -108 7 -10 0 -28 -12
-40 -25 -18 -19 -36 -25 -85 -30 -67 -6 -92 -1 -92 19 0 6 -11 24 -25 39 -14
15 -25 30 -25 35 0 4 -13 17 -29 29 -23 17 -30 31 -35 76 -6 43 -15 65 -42 97
-37 44 -44 90 -19 122 10 15 11 24 3 43 -16 34 -49 39 -113 20 -48 -16 -56
-16 -82 -3 -15 8 -39 27 -52 41 -35 38 -79 36 -93 -5 -6 -18 -15 -28 -24 -25
-8 3 -11 -2 -9 -15 2 -10 0 -19 -4 -19 -5 0 -8 -8 -7 -17 0 -11 -7 -19 -21
-21 -17 -3 -26 5 -38 34 -16 39 -42 74 -55 74 -4 0 -12 -12 -19 -26 -9 -21
-14 -24 -25 -15 -8 7 -17 24 -21 39 -11 44 -34 62 -80 62 -35 0 -46 5 -59 25
-13 20 -22 24 -44 19 -15 -4 -31 -11 -36 -15 -6 -5 -17 -9 -25 -9 -9 0 -24
-14 -33 -30 -15 -27 -19 -29 -42 -19 -20 9 -29 9 -42 -2 -14 -12 -19 -10 -40
14 -13 16 -24 35 -24 43 0 17 -16 19 -26 3 -4 -8 -20 4 -44 31 -21 24 -42 40
-48 36 -6 -3 -14 -27 -18 -52 -5 -32 -10 -42 -17 -35 -18 18 -37 13 -37 -9 0
-11 -6 -20 -12 -20 -7 -1 -32 -5 -56 -9 -35 -7 -47 -5 -66 10 -28 22 -36 16
-36 -25 0 -17 -8 -58 -18 -91 -15 -48 -23 -61 -41 -63 -41 -6 -58 21 -64 106
-6 93 -11 106 -43 120 -24 11 -24 11 -24 -33 0 -25 5 -45 11 -45 6 0 9 -16 7
-37 -3 -33 -7 -38 -30 -41 -24 -3 -30 3 -58 61 -32 67 -57 87 -110 87 -16 0
-32 5 -35 10 -12 19 -47 10 -78 -21 -30 -30 -33 -31 -95 -25 -75 8 -95 17
-140 63 -40 42 -47 60 -56 143 -4 36 -11 69 -15 75 -5 5 -9 18 -10 28 -3 42
-5 47 -23 53 -13 4 -18 13 -16 32 2 22 -2 28 -22 30 -14 2 -32 10 -40 17 -8 7
-31 16 -50 20 -42 8 -140 70 -140 88 0 8 3 7 9 -2 8 -12 12 -12 24 -2 28 23
-3 80 -51 95 -17 6 -22 3 -22 -11 0 -15 -3 -15 -19 6 -22 29 -41 20 -41 -20 0
-35 39 -79 69 -79 32 0 33 -15 3 -54 -21 -28 -32 -35 -51 -30 -13 3 -28 -1
-35 -9 -6 -8 -32 -21 -57 -31 -26 -9 -57 -25 -69 -36 -50 -44 -152 -33 -183
19 -19 33 -22 82 -6 98 8 8 5 23 -9 56 -17 39 -23 45 -44 40 -12 -3 -35 -19
-50 -34 -30 -32 -49 -36 -72 -14 -8 8 -21 15 -29 15 -8 0 -20 7 -27 16 -18 20
-87 10 -117 -19 -22 -20 -23 -27 -23 -198 0 -108 4 -180 10 -184 6 -3 10 1 10
9 0 11 10 15 34 14 28 -1 33 -4 28 -21 -4 -15 -2 -18 9 -12 12 8 12 6 0 -8 -7
-9 -9 -17 -3 -17 5 0 12 -14 16 -31 3 -17 15 -43 26 -59 23 -33 24 -40 8 -75
-8 -18 -32 -36 -75 -55 -62 -28 -63 -29 -63 -69 0 -34 6 -46 42 -81 23 -22 46
-40 50 -40 16 0 48 -35 48 -52 0 -10 -3 -18 -8 -18 -4 0 -13 -14 -21 -31 -7
-16 -15 -28 -18 -25 -3 2 -20 -2 -39 -10 -19 -8 -34 -11 -34 -7 0 4 -5 2 -12
-5 -9 -9 -8 -16 5 -30 9 -10 14 -22 10 -25 -3 -4 1 -7 10 -7 12 0 16 -8 15
-25 -1 -14 -6 -26 -10 -26 -4 -1 -14 -2 -20 -3 -10 -1 -14 -218 -16 -1043 -2
-1022 -2 -1042 17 -1053 11 -5 21 -20 23 -32 4 -30 41 -34 104 -13 25 8 55 13
65 10 28 -9 42 -41 29 -64 -5 -11 -10 -29 -10 -40 0 -18 6 -21 38 -21 41 0 70
-16 131 -73 43 -39 57 -72 48 -110 -3 -12 -10 -38 -15 -57 -5 -21 -5 -46 1
-63 6 -19 6 -41 -2 -67 -6 -20 -11 -62 -11 -92 0 -58 -15 -82 -55 -90 -17 -3
-19 -10 -16 -48 6 -83 4 -125 -10 -174 -10 -38 -10 -51 -1 -54 24 -8 11 -31
-21 -37 -17 -4 -42 -13 -55 -21 -12 -8 -27 -12 -32 -9 -6 4 -7 -1 -3 -11 5
-14 1 -16 -26 -12 -22 3 -35 0 -38 -9 -4 -10 -12 -6 -32 14 -14 16 -39 38 -55
51 -16 12 -40 37 -53 54 l-23 32 0 -146 c0 -143 0 -146 23 -152 57 -15 114 -2
144 34 11 13 12 13 7 -2 -4 -12 -1 -18 10 -18 22 0 20 -13 -4 -28 -23 -14 -27
-60 -5 -68 21 -9 79 14 110 42 28 26 59 26 49 0 -3 -8 3 -19 14 -25 17 -9 20
-7 25 22 4 25 0 36 -18 52 l-24 20 22 20 c12 12 27 30 33 40 13 23 119 42 139
25 8 -6 18 -5 30 4 15 11 19 26 19 67 -1 57 -8 79 -49 144 -33 53 -26 105 20
152 29 30 38 33 89 33 37 0 70 -7 95 -20 30 -15 46 -17 69 -11 17 5 33 7 36 4
9 -9 83 -5 103 6 100 56 204 68 241 28 12 -13 22 -29 22 -35 0 -13 40 -32 65
-32 8 0 31 17 52 39 21 21 67 52 103 69 58 27 74 30 140 27 41 -2 97 -4 123
-4 29 -1 46 -5 42 -11 -3 -5 -2 -10 3 -10 5 0 20 21 33 47 33 65 95 150 123
168 20 13 49 15 167 12 79 -3 189 -10 245 -18 l101 -13 94 44 c52 24 104 52
115 63 12 10 48 27 80 37 33 10 90 33 128 50 37 17 107 40 155 50 47 10 99 23
114 29 16 6 41 11 56 11 31 0 135 43 146 59 3 6 22 11 40 11 40 0 59 25 43 54
-9 16 -8 18 6 13 11 -4 27 2 44 18 46 43 125 57 176 30 15 -8 48 -15 71 -15
35 0 48 5 64 26 12 15 21 32 21 39 0 16 108 55 151 54 19 0 65 -6 104 -13 62
-11 72 -16 93 -46 23 -34 23 -41 24 -280 0 -14 -6 -60 -13 -103 -12 -68 -11
-83 3 -122 15 -40 15 -47 2 -74 -12 -24 -13 -35 -4 -52 16 -30 5 -64 -30 -89
-43 -31 -36 -80 12 -80 20 0 41 -42 36 -73 -2 -11 -12 -25 -23 -31 -29 -16
-35 -28 -33 -61 3 -33 -22 -46 -48 -25 -8 7 -33 14 -57 15 -23 1 -62 8 -87 15
-25 6 -56 15 -69 18 -14 4 -34 24 -47 47 -18 33 -28 40 -53 41 -18 1 -37 6
-43 13 -7 6 -41 11 -77 11 -71 0 -120 21 -141 59 -25 47 -98 11 -150 -74 -36
-60 -81 -88 -104 -65 -6 6 -18 10 -27 10 -9 0 -23 9 -30 20 -19 28 -53 32 -80
9 -25 -21 -35 -24 -44 -9 -3 6 2 10 11 10 13 0 15 3 8 10 -8 8 -19 7 -39 -2
-23 -10 -29 -10 -40 5 -16 22 -46 22 -87 -1 -31 -18 -53 -19 -105 -7 -28 6
-66 -52 -51 -79 15 -26 0 -78 -20 -72 -10 3 -24 1 -32 -4 -8 -5 -19 -5 -25 0
-7 6 -24 1 -46 -14 -40 -27 -89 -41 -89 -26 0 27 -72 -6 -91 -42 -6 -11 -15
-48 -20 -83 -16 -115 -37 -133 -137 -121 -47 6 -47 6 -73 -36 -22 -38 -29 -43
-62 -43 -23 0 -41 6 -49 17 -7 10 -26 18 -43 18 -93 1 -117 -1 -134 -12 -15
-9 -26 -8 -50 4 -46 22 -82 12 -109 -28 -33 -51 -60 -46 -131 25 -32 32 -70
60 -85 63 -34 7 -33 0 7 -52 83 -111 87 -119 62 -140 -8 -7 -15 -22 -15 -34 0
-31 -41 -67 -71 -64 -18 2 -24 -2 -24 -17 -1 -12 -10 -30 -20 -41 -11 -11 -34
-36 -51 -56 -17 -20 -42 -39 -55 -43 -13 -4 -32 -14 -42 -23 -16 -14 -19 -13
-41 7 -16 15 -31 21 -44 17 -23 -8 -37 8 -41 49 -7 70 -98 114 -123 59 -12
-25 -19 -26 -61 -9 -11 5 -17 3 -17 -6 0 -8 -25 -22 -57 -33 -52 -17 -58 -17
-68 -2 -17 22 -32 20 -67 -9 -16 -14 -34 -23 -39 -19 -5 3 -9 0 -9 -5 0 -13
-3 -13 85 -16 39 -2 81 -7 95 -13 36 -14 66 -52 74 -91 6 -35 59 -104 71 -93
3 4 10 0 15 -8 5 -7 14 -15 22 -17 7 -1 25 -5 39 -9 40 -9 90 20 153 86 40 44
53 64 49 79 -3 12 -1 21 6 21 5 0 8 8 5 18 -3 9 3 1 13 -18 14 -28 25 -36 51
-38 17 -2 32 -6 32 -10 0 -4 11 -20 25 -36 13 -16 22 -34 18 -40 -5 -8 -3 -8
8 0 27 22 69 23 80 3 5 -11 16 -19 23 -19 8 0 40 -27 72 -60 31 -33 66 -62 76
-66 18 -5 19 -13 13 -87 -3 -45 -8 -96 -11 -114 -3 -20 1 -36 12 -47 9 -9 13
-24 10 -33 -4 -9 4 -31 19 -52 24 -36 49 -127 38 -144 -3 -5 0 -51 7 -103 9
-70 10 -97 1 -108 -6 -7 -39 -16 -72 -19 -77 -7 -94 -22 -90 -80 1 -39 -1 -45
-21 -50 -18 -5 -30 1 -54 28 -28 32 -35 34 -95 36 -40 1 -76 9 -96 20 -61 35
-108 66 -122 83 -18 22 -38 20 -46 -4 -9 -28 -51 -26 -70 4 -9 13 -17 53 -20
90 -4 57 -1 70 15 86 11 11 20 24 20 29 0 6 12 6 29 1 49 -14 54 1 21 63 -16
31 -30 66 -30 77 0 16 -6 19 -27 16 -71 -8 -165 -90 -205 -178 -40 -88 -96
-96 -128 -20 -23 54 -6 126 40 175 19 22 43 52 53 68 19 29 19 29 -4 29 -12 0
-41 -9 -64 -20 -39 -19 -45 -19 -84 -6 -23 9 -48 13 -55 10 -25 -10 -26 13 -1
34 21 18 23 25 14 54 -21 74 0 98 85 98 28 0 52 7 67 19 24 20 24 20 4 36 -21
17 -60 35 -75 35 -5 0 -25 -14 -43 -30 -27 -23 -44 -30 -76 -30 -42 0 -45 -4
-41 -47 1 -12 -4 -32 -10 -43 -10 -19 -17 -21 -57 -15 -39 6 -47 4 -68 -19
-36 -39 -65 -33 -94 22 -14 25 -35 28 -71 7 -14 -7 -40 -21 -57 -29 -20 -9
-40 -29 -50 -51 -15 -30 -15 -42 -5 -80 15 -55 16 -112 2 -120 -5 -3 -10 -16
-10 -28 0 -13 -10 -31 -22 -42 -28 -23 -129 -50 -200 -54 l-28 -1 0 -78 0 -79
52 4 c46 3 57 0 82 -22 24 -22 27 -31 22 -59 -10 -52 -59 -112 -111 -135 l-45
-20 0 -2100 c0 -1389 3 -2102 10 -2106 13 -8 13 -92 0 -100 -6 -4 -10 -142
-10 -381 l0 -374 675 0 c593 0 675 2 675 15 0 8 -7 15 -15 15 -16 0 -35 30
-35 54 0 26 27 18 45 -12 30 -51 83 -65 253 -70 l153 -4 -32 47 c-27 39 -30
51 -21 66 9 14 8 20 -4 27 -15 9 -33 36 -53 80 -6 12 -15 22 -20 22 -5 0 -11
12 -14 27 -14 70 -20 90 -33 120 -8 17 -14 42 -14 55 0 12 -7 36 -15 52 -8 15
-15 45 -15 66 0 21 -7 43 -15 50 -10 8 -15 30 -15 61 0 26 -4 50 -8 53 -12 7
-29 95 -37 184 -6 66 -5 72 11 72 11 0 34 -13 51 -28 28 -23 35 -38 47 -102
32 -168 39 -220 33 -247 -4 -22 -1 -34 14 -46 10 -9 19 -25 19 -35 0 -9 9 -42
21 -72 46 -124 50 -141 40 -154 -7 -8 -5 -15 8 -23 28 -17 36 -64 15 -80 -22
-16 -4 -40 34 -45 23 -3 28 -8 30 -38 2 -19 11 -43 19 -52 9 -10 12 -18 8 -18
-4 0 0 -9 10 -20 16 -17 31 -20 117 -20 59 0 98 4 98 10 0 6 8 10 18 10 14 0
14 -2 3 -9 -9 -6 162 -10 438 -11 l452 -1 -15 23 c-20 31 -47 138 -40 160 3
10 12 19 20 19 8 1 19 3 24 4 6 1 14 3 19 4 13 2 21 40 9 47 -5 3 -15 1 -21
-5 -6 -6 -17 -11 -25 -11 -8 0 -21 -8 -28 -17 -10 -14 -15 -15 -25 -6 -9 9 -9
22 2 57 11 38 18 46 39 48 14 1 32 2 41 3 9 0 24 9 34 19 10 9 26 15 36 13 10
-3 23 1 30 9 15 18 39 18 39 0 0 -17 -19 -33 -45 -38 -24 -4 -58 -70 -48 -93
4 -11 13 -15 27 -12 41 11 133 45 174 66 43 22 92 28 92 11 0 -5 -16 -24 -35
-41 -19 -18 -37 -41 -41 -52 -4 -11 -19 -38 -35 -60 -35 -48 -37 -62 -6 -52
12 4 32 6 44 6 12 0 39 11 60 24 20 14 48 28 62 32 14 3 31 9 36 13 6 5 26 11
46 15 41 8 61 -8 30 -24 -10 -6 -24 -23 -31 -38 -6 -16 -22 -48 -35 -73 l-23
-45 70 -3 c43 -2 88 3 117 12 25 8 66 16 91 18 38 3 45 0 44 -15 -2 -16 42
-17 872 -17 552 1 874 4 874 10 0 6 17 10 38 10 27 0 33 -3 22 -10 -10 -6 96
-10 309 -10 284 0 322 2 305 14 -17 13 -18 15 -2 21 22 9 41 -3 34 -21 -5 -12
54 -14 377 -14 424 0 425 0 413 57 -7 29 -56 76 -56 53 0 -5 -6 -10 -14 -10
-11 0 -13 -9 -9 -35 5 -32 3 -35 -18 -35 -13 0 -34 -3 -46 -6 -17 -5 -22 -1
-25 18 -4 28 -33 31 -33 3 0 -17 -7 -20 -52 -21 -45 -1 -54 2 -59 20 -4 12
-11 24 -17 27 -6 4 0 23 13 48 20 35 22 44 11 64 -16 31 1 77 29 77 11 0 20
-5 20 -11 0 -7 10 -9 24 -7 15 3 27 0 30 -8 8 -20 29 -17 59 6 14 11 30 20 35
20 17 0 22 -32 13 -72 -8 -34 -7 -37 20 -48 38 -16 52 -5 43 33 -3 18 -10 37
-14 42 -4 6 -11 28 -14 50 -18 102 -24 113 -62 117 l-36 4 6 -43 c5 -38 3 -43
-14 -43 -11 0 -20 -5 -20 -11 0 -6 -9 -8 -22 -3 -13 4 -36 7 -53 8 -27 1 -30
4 -28 31 3 49 15 95 26 102 6 3 18 -3 27 -15 12 -14 24 -19 39 -15 11 3 18 9
15 14 -3 5 -10 7 -15 4 -5 -4 -9 -2 -9 3 0 15 13 22 24 13 14 -11 83 -18 91
-9 4 4 -2 26 -14 50 -34 73 -80 187 -92 230 -6 23 -22 58 -35 77 -13 20 -24
40 -24 46 0 6 -11 27 -25 47 -13 20 -29 53 -34 75 -15 57 -39 129 -71 208 -16
39 -31 81 -34 95 -4 22 -60 182 -81 235 -5 11 -16 40 -26 65 -61 158 -199 380
-314 505 -30 33 -55 65 -55 71 0 12 -29 29 -43 25 -5 -1 -6 2 -3 7 8 14 -25
54 -39 48 -8 -3 -22 11 -34 35 -23 44 -88 111 -145 149 -38 26 -47 50 -19 50
14 0 15 2 4 12 -11 11 -14 11 -18 0 -8 -21 -69 -14 -100 12 -15 13 -38 26 -50
30 -35 11 -27 23 16 28 22 2 37 0 34 -5 -3 -5 1 -7 8 -6 8 1 22 -1 32 -6 10
-4 20 -5 23 -3 6 6 -174 152 -198 161 -10 4 -18 13 -18 22 0 8 -9 15 -20 15
-15 0 -57 14 -78 26 -1 0 0 9 4 18 7 17 44 23 44 6 0 -5 12 -10 26 -10 22 0
24 -2 14 -15 -10 -12 -7 -15 16 -21 23 -6 31 -2 50 21 12 15 26 25 32 22 5 -4
17 2 27 13 10 11 14 20 10 20 -5 0 1 10 13 22 11 13 22 28 23 33 4 24 12 35
25 35 16 0 19 -16 4 -25 -11 -7 -4 -65 10 -79 9 -9 43 58 56 110 7 27 26 31
44 9 7 -9 22 -12 40 -9 17 4 37 0 51 -9 13 -9 41 -19 62 -22 20 -4 54 -16 74
-26 21 -11 49 -19 63 -19 14 0 34 -6 45 -14 11 -7 47 -17 80 -21 33 -4 78 -9
100 -11 22 -3 67 -7 100 -9 33 -2 102 -7 154 -11 l93 -7 -7 24 c-3 13 -19 51
-35 84 -35 74 -67 188 -42 147 7 -9 15 -10 35 -3 18 7 27 7 30 -2 3 -9 8 -9
20 2 15 12 15 15 -8 33 -14 11 -25 25 -25 31 0 7 4 6 10 -3 14 -23 25 -3 26
50 2 41 0 48 -14 43 -12 -5 -14 -2 -9 11 6 14 3 16 -13 11 -19 -6 -25 3 -21
28 1 4 -4 17 -10 28 -8 16 -7 25 4 37 24 29 29 42 14 36 -10 -3 -17 4 -22 23
-4 17 -2 29 4 31 18 6 12 22 -10 31 -14 5 -23 18 -25 36 -4 42 -25 85 -40 85
-8 0 -11 6 -7 16 5 14 3 15 -15 5 -18 -10 -21 -9 -16 4 4 10 -3 18 -20 25 -22
8 -25 14 -20 35 5 20 3 24 -9 19 -12 -4 -14 -1 -10 15 4 15 1 21 -11 21 -10 0
-14 5 -11 10 4 6 11 7 17 4 7 -5 9 2 4 20 -5 19 -3 26 8 26 18 0 27 35 12 50
-8 8 -4 9 17 1 35 -14 47 -14 27 -1 -13 9 -13 11 0 19 8 5 14 22 15 38 0 22 4
27 19 25 14 -3 17 1 13 12 -4 9 -1 16 5 16 6 0 9 3 5 6 -7 7 29 44 43 44 6 0
10 10 10 23 0 30 99 127 130 127 17 0 21 4 17 20 -3 13 0 20 10 20 22 0 73 32
73 47 0 7 13 22 30 35 16 12 30 30 30 40 0 10 5 18 11 18 5 0 7 -5 4 -11 -4
-6 2 -5 14 2 l20 13 -22 25 c-12 13 -17 21 -11 18 13 -8 74 44 74 62 0 8 7 11
15 7 14 -5 20 9 16 41 -2 17 16 17 23 1 4 -10 7 -9 15 2 5 8 19 26 30 39 12
13 19 27 16 30 -4 3 -9 0 -13 -6 -4 -6 -24 -14 -45 -18 -21 -4 -42 -16 -48
-26 -5 -11 -14 -19 -18 -19 -5 0 -25 -15 -44 -32 -19 -18 -46 -42 -59 -53 -12
-11 -42 -42 -66 -68 -23 -26 -46 -47 -50 -47 -4 0 -13 -9 -20 -20 -7 -11 -21
-20 -33 -20 -11 0 -18 -4 -14 -9 3 -5 -5 -13 -17 -17 -13 -4 -33 -18 -46 -31
-17 -18 -31 -24 -55 -21 -24 2 -31 -1 -30 -12 2 -10 -17 -22 -60 -38 -67 -24
-92 -28 -82 -12 10 16 -7 12 -28 -7 -11 -10 -17 -13 -14 -7 4 7 0 14 -8 18 -8
3 -12 12 -9 19 5 14 -42 32 -78 29 -9 -1 -22 6 -30 15 -11 15 -11 16 5 10 11
-4 17 -2 17 8 0 8 -6 12 -14 9 -8 -3 -17 -1 -21 5 -3 6 -15 11 -25 11 -10 0
-20 4 -22 10 -5 14 -48 0 -48 -16 0 -13 15 -19 64 -26 11 -2 21 -8 23 -15 3
-8 -15 -11 -67 -8 -59 3 -75 7 -87 24 -8 12 -19 19 -24 15 -5 -3 -16 -1 -23 5
-16 13 -33 -4 -33 -31 0 -13 4 -15 19 -7 10 5 18 8 19 7 9 -39 7 -68 -5 -68
-8 0 -16 7 -20 15 -3 8 -13 15 -22 15 -11 0 -15 6 -11 19 3 14 -3 23 -24 31
-16 7 -29 17 -29 23 0 19 -33 35 -56 27 -12 -5 -24 -7 -26 -4 -3 2 -3 -9 0
-26 4 -27 2 -29 -26 -27 -17 1 -28 7 -25 13 5 13 -24 27 -37 19 -5 -3 -11 -1
-15 5 -4 6 -10 8 -15 5 -5 -3 -11 4 -15 14 -3 11 -15 23 -26 26 -10 4 -19 11
-19 16 0 5 -8 12 -17 16 -10 3 -48 37 -85 75 -37 37 -72 68 -78 68 -5 0 -10 4
-10 10 0 16 -49 59 -56 49 -4 -7 -12 -5 -22 4 -10 8 -25 17 -34 20 -10 4 -18
14 -18 24 0 15 -2 16 -10 3 -7 -10 -13 -11 -17 -4 -5 5 -30 11 -56 12 -27 1
-55 8 -63 17 -9 8 -20 15 -25 15 -6 0 -32 18 -58 40 -68 57 -91 55 -46 -4 14
-18 25 -38 25 -44 0 -7 5 -12 11 -12 6 0 8 -7 5 -16 -3 -8 -2 -12 3 -9 5 3 13
-5 16 -17 4 -13 25 -39 46 -59 21 -20 39 -42 39 -48 0 -6 5 -11 10 -11 6 0 10
-5 10 -12 0 -6 7 -20 17 -30 19 -21 10 -36 -11 -19 -8 7 -20 10 -25 6 -6 -3
12 -29 40 -58 57 -59 85 -107 69 -117 -6 -4 -10 -11 -9 -16 11 -62 -111 11
-293 175 -79 71 -96 109 -102 231 -13 228 -24 286 -79 400 -75 154 -93 180
-122 180 -28 0 -50 -39 -42 -72 6 -20 -21 -32 -47 -22 -12 5 -16 0 -16 -18 0
-40 -39 -68 -93 -68 -35 0 -49 4 -57 19 -7 14 -6 21 3 24 6 3 2 6 -9 6 -29 1
-72 -44 -84 -88 -5 -20 -19 -51 -30 -68 -14 -23 -17 -39 -11 -55 4 -12 3 -33
-2 -48 -8 -21 -6 -37 6 -68 19 -47 14 -72 -15 -72 -27 0 -80 -28 -99 -53 -14
-17 -20 -18 -48 -9 -30 11 -34 9 -63 -23 -18 -21 -46 -39 -71 -47 -78 -22 -88
-46 -29 -67 20 -8 52 -25 70 -39 29 -22 32 -23 33 -6 1 11 1 24 0 29 -1 6 12
-4 28 -22 31 -33 33 -69 4 -86 -7 -4 -13 -15 -13 -23 0 -24 -25 5 -44 50 -18
42 -36 40 -36 -5 0 -41 -15 -66 -50 -84 -32 -16 -100 -20 -115 -6 -6 5 -32 18
-58 29 l-48 21 -31 -29 c-17 -17 -41 -30 -53 -30 -12 0 -43 -14 -70 -32 -60
-40 -120 -41 -195 -3 -33 17 -66 25 -98 25 -30 0 -54 5 -61 14 -17 20 -54 8
-48 -16 4 -12 -3 -24 -19 -34 -13 -9 -24 -25 -24 -36 0 -30 -19 -58 -39 -58
-29 0 -42 25 -39 72 3 41 5 44 41 52 64 16 46 36 -32 36 -90 0 -119 -12 -160
-65 -18 -25 -37 -45 -41 -45 -5 0 -36 -33 -70 -74 -33 -41 -74 -79 -90 -86
-16 -7 -32 -21 -35 -31 -4 -10 -12 -19 -19 -19 -7 0 -23 -9 -36 -20 -28 -24
-32 -24 -72 -4 -23 12 -47 15 -86 11 -48 -5 -57 -3 -79 19 -22 22 -25 31 -20
72 5 35 1 56 -13 82 -10 19 -24 46 -29 60 -17 39 -27 54 -38 57 -13 5 -56 -85
-47 -98 3 -5 1 -9 -3 -9 -5 0 -13 -10 -18 -22 -13 -30 -60 -37 -67 -11 -6 23
9 66 20 59 11 -6 24 4 40 32 11 20 10 22 -8 22 -31 0 -53 60 -45 120 l7 48 39
-4 c35 -4 44 1 81 37 55 53 112 82 146 74 15 -3 37 -7 49 -9 12 -3 44 2 71 11
65 21 100 6 122 -55 23 -61 38 -73 83 -65 49 8 55 24 28 78 -17 35 -20 49 -11
64 12 24 41 41 68 41 10 0 25 12 32 26 24 44 45 48 92 17 24 -15 54 -38 66
-50 33 -30 97 -26 127 9 11 14 28 28 38 31 21 8 22 21 2 40 -12 13 -12 17 4
31 22 20 45 21 60 2 13 -15 57 -28 114 -32 21 -1 45 -8 53 -15 23 -19 50 17
58 77 7 52 34 124 51 136 6 5 5 8 -3 8 -6 0 -11 3 -11 8 7 40 -2 50 -48 57
-27 3 -70 21 -97 38 -27 17 -59 30 -72 29 -31 -2 -39 13 -17 35 12 12 30 17
56 15 43 -4 64 23 31 41 -10 6 -28 20 -40 32 -23 23 -76 40 -156 50 -51 7 -98
37 -98 63 0 9 -7 26 -15 36 -19 25 -19 103 -1 147 29 70 92 126 194 175 53 25
109 52 124 60 22 12 36 13 66 5 31 -9 49 -7 95 9 31 11 76 20 100 20 43 0 45
1 50 34 3 19 15 48 27 64 18 24 20 34 11 50 -18 33 -13 59 14 80 28 22 55 20
97 -10 43 -30 50 -24 46 40 -3 65 20 116 50 110 16 -3 47 -84 66 -171 4 -17
16 -31 32 -37 14 -6 33 -19 43 -30 19 -22 43 -27 89 -16 18 4 63 3 103 -4 63
-11 73 -10 88 4 15 16 14 17 -14 15 -58 -2 -129 32 -157 76 -15 22 -41 60 -58
84 -17 24 -29 45 -26 48 2 3 -2 26 -10 51 -33 108 -45 191 -64 455 -11 154
-22 282 -24 285 -2 4 0 39 5 77 10 92 78 244 91 205 6 -20 48 30 48 57 0 36 9
25 12 -14 2 -34 30 -49 63 -37 10 4 15 2 13 -7 -2 -7 7 -18 20 -24 20 -8 22
-15 17 -43 -4 -23 -3 -32 4 -27 6 3 11 -1 11 -9 0 -9 5 -16 11 -16 8 0 8 -4 0
-13 -8 -10 -7 -17 2 -26 9 -9 9 -14 -3 -21 -12 -8 -10 -10 8 -10 26 0 27 -6 7
-40 -17 -30 -18 -40 -5 -40 6 0 10 7 10 15 0 8 5 15 10 15 14 0 13 -46 -2 -73
-10 -19 -9 -20 4 -9 13 10 19 10 31 -3 23 -22 33 -18 32 13 0 15 3 43 7 62 4
22 3 39 -5 49 -9 11 -9 15 1 18 6 3 12 19 12 36 0 18 7 40 15 51 14 18 15 18
60 -3 25 -12 80 -26 123 -33 67 -9 81 -15 104 -42 l26 -30 11 42 c14 50 38 75
111 112 136 69 296 96 523 87 235 -9 424 -63 503 -145 34 -36 39 -55 35 -134
-3 -48 21 -52 34 -6 16 52 54 72 138 73 97 0 130 -15 159 -73 l23 -47 5 80 c8
116 44 154 195 208 153 54 214 62 450 62 248 0 293 -8 425 -72 41 -21 86 -37
100 -36 15 1 18 -1 8 -4 -22 -5 -22 -12 -3 -37 8 -11 15 -30 15 -44 0 -27 17
-21 30 12 7 19 23 26 91 41 45 9 97 24 115 31 33 14 52 6 39 -16 -4 -6 -1 -18
6 -26 7 -9 13 -35 14 -60 0 -24 6 -49 13 -56 8 -7 13 -8 12 -3 -5 21 1 27 14
16 19 -16 29 11 16 45 -6 14 -6 23 -2 20 12 -7 31 57 27 89 -1 14 2 25 7 25 6
0 8 6 5 14 -3 8 1 17 10 20 8 4 13 13 10 21 -4 9 -1 12 9 8 7 -3 14 0 14 6 0
6 -5 11 -12 11 -6 0 -4 8 7 20 9 10 20 19 24 18 3 -1 23 2 44 7 46 9 73 -1
133 -53 34 -29 43 -44 44 -69 0 -18 6 -36 13 -40 17 -10 6 -230 -17 -353 -9
-47 -22 -157 -30 -245 -29 -306 -61 -404 -154 -469 -38 -27 -54 -31 -157 -40
l-115 -10 -5 -30 c-3 -17 -9 -77 -15 -134 -21 -218 -91 -448 -184 -604 l-28
-48 31 -26 c41 -34 40 -64 -5 -113 -42 -47 -89 -62 -109 -35 -11 15 -15 16
-28 5 -40 -32 -72 -141 -47 -156 16 -10 12 -48 -4 -42 -17 7 -21 -12 -36 -188
-6 -66 -13 -127 -16 -136 -2 -9 -5 -122 -6 -250 -1 -214 -12 -322 -30 -303 -5
5 -21 -48 -23 -78 0 -3 -3 -9 -7 -13 -4 -4 -4 -13 -2 -20 3 -7 1 -16 -4 -19
-6 -3 -8 -15 -5 -25 3 -11 -3 -27 -14 -38 -10 -11 -19 -30 -21 -44 -1 -13 -7
-26 -12 -27 -6 -2 -10 -8 -10 -13 0 -6 5 -7 12 -3 7 4 8 3 4 -5 -4 -6 -11 -9
-16 -6 -5 3 -11 1 -14 -4 -3 -5 1 -12 9 -15 11 -4 13 -10 6 -23 -5 -10 -12
-27 -16 -37 -5 -19 -6 -19 -21 0 -15 18 -15 18 -9 -8 3 -16 2 -28 -3 -28 -5 0
-9 -21 -9 -46 0 -25 -4 -49 -9 -52 -12 -9 -38 -62 -39 -82 -1 -8 -4 -22 -7
-30 -4 -8 -9 -27 -12 -42 -6 -28 -69 -94 -98 -104 -10 -3 -18 -9 -18 -13 0
-14 -37 -51 -51 -51 -13 -1 -70 -69 -97 -117 -11 -20 -10 -23 13 -29 22 -6
109 -2 235 10 25 2 81 21 125 42 44 21 85 39 91 40 6 1 21 5 33 9 15 5 23 1
28 -12 4 -10 18 -34 32 -53 14 -19 26 -37 28 -39 2 -2 6 -1 9 2 4 4 -1 18 -10
32 -10 15 -16 34 -14 43 3 13 19 1 65 -45 61 -63 80 -77 69 -47 -3 9 -3 14 1
12 5 -2 24 -11 43 -20 19 -9 50 -32 68 -52 18 -20 37 -36 42 -36 12 0 85 92
106 133 9 16 18 26 21 23 10 -10 6 -161 -6 -204 -9 -32 -9 -47 -1 -57 7 -8 9
-28 4 -50 -4 -25 -3 -40 5 -45 10 -5 8 -19 -5 -59 -12 -37 -15 -68 -10 -107 6
-53 6 -55 -15 -49 -15 5 -19 4 -15 -4 4 -6 14 -11 22 -11 16 0 17 -4 5 -28
-30 -59 -53 -128 -66 -202 -8 -47 -20 -106 -26 -131 -5 -25 -12 -64 -14 -85
-2 -22 -6 -56 -10 -76 -8 -42 1 -78 19 -78 7 0 23 11 36 25 27 28 65 30 65 4
0 -21 -109 -136 -132 -141 -15 -3 -17 -14 -14 -85 1 -45 -3 -115 -9 -156 -9
-51 -9 -80 -2 -93 7 -13 7 -34 0 -64 -5 -25 -11 -63 -13 -85 -10 -111 -15
-154 -23 -203 -5 -29 -6 -55 -2 -57 4 -2 26 -7 49 -11 23 -4 44 -11 47 -15 3
-5 5 -40 6 -78 0 -61 -3 -73 -28 -105 -16 -20 -40 -40 -54 -45 -35 -12 -55
-74 -39 -120 6 -17 7 -39 3 -49 -5 -9 -9 -35 -10 -57 -1 -22 -6 -84 -9 -137
-8 -95 -7 -98 13 -98 13 0 29 12 39 28 9 15 18 29 20 31 2 2 12 -4 23 -14 26
-24 34 -15 22 28 -11 39 -7 48 29 64 22 9 25 16 21 45 -3 18 -9 36 -14 39 -18
12 2 45 43 72 22 15 45 25 50 21 5 -3 -1 -24 -13 -47 -12 -23 -22 -62 -23 -86
0 -39 4 -46 39 -76 32 -27 40 -39 40 -69 1 -30 4 -36 24 -36 12 0 22 6 22 14
0 14 51 46 74 46 6 0 20 7 30 15 16 12 17 18 8 27 -7 7 -12 22 -12 35 0 25
-19 30 -38 11 -14 -14 -28 -3 -34 27 -2 12 -13 21 -26 23 -14 2 -22 9 -20 20
2 11 -6 18 -26 22 -28 5 -50 30 -27 30 18 0 33 50 21 65 -8 9 -6 14 6 19 32
12 43 5 59 -45 10 -28 24 -53 34 -55 33 -11 45 -21 55 -50 5 -16 15 -34 23
-39 8 -6 15 -29 16 -53 1 -27 6 -42 14 -42 7 0 13 -8 13 -17 0 -10 7 -26 14
-35 12 -17 49 -18 526 -18 510 0 513 0 495 20 -10 11 -26 22 -36 25 -11 4 -19
15 -19 25 0 20 -61 47 -80 35 -15 -9 -12 -25 5 -25 8 0 15 -4 15 -10 0 -5 -7
-10 -15 -10 -8 0 -15 4 -15 10 0 5 -12 13 -27 16 -16 4 -35 12 -43 19 -8 7
-24 15 -35 17 -12 2 -21 13 -23 26 -2 14 -10 22 -23 22 -10 0 -19 4 -19 10 0
5 -18 22 -41 37 -26 17 -42 36 -46 54 -3 15 -12 30 -20 33 -10 4 -13 14 -9 30
5 21 -1 28 -38 50 -41 24 -86 72 -86 93 0 14 58 35 97 35 35 0 74 -25 60 -39
-4 -4 -25 -9 -48 -12 -22 -3 -41 -10 -42 -16 -1 -5 14 -20 33 -32 19 -13 45
-31 57 -42 23 -19 147 -37 182 -26 26 8 71 -11 71 -31 0 -13 -10 -15 -57 -12
-65 4 -78 -10 -37 -39 14 -10 45 -34 68 -54 63 -55 101 -71 169 -70 68 1 97
-11 97 -39 0 -17 -7 -20 -50 -20 -37 0 -50 -4 -50 -14 0 -8 9 -17 19 -21 11
-3 23 -15 26 -26 6 -18 17 -19 167 -19 l160 0 -153 153 c-191 190 -274 255
-401 315 -21 9 -38 23 -38 30 0 17 71 16 107 -2 15 -8 57 -25 93 -38 59 -21
78 -36 199 -156 73 -73 147 -140 162 -149 16 -10 29 -21 29 -25 0 -4 22 -30
50 -59 28 -29 50 -56 50 -61 0 -4 229 -8 508 -8 l509 0 11 39 c7 21 12 46 12
55 0 9 4 16 10 16 13 0 0 -93 -14 -102 -6 -4 332 -8 752 -8 l762 0 0 350 0
349 -85 83 c-47 46 -85 88 -85 94 0 5 -14 23 -31 40 -17 16 -40 47 -51 69 -18
34 -19 43 -8 74 23 64 42 71 158 67 l102 -4 0 183 0 183 -39 0 c-37 1 -64 15
-99 54 -17 18 -24 58 -10 58 4 0 8 10 7 23 -1 69 10 127 30 148 12 13 21 28
21 35 0 13 53 26 75 18 13 -5 15 171 15 1595 0 1516 -1 1602 -17 1609 -35 14
-132 6 -153 -13 -34 -31 -178 -54 -240 -38 -26 7 -43 22 -67 58 -30 45 -33 57
-33 122 0 52 -4 76 -16 87 -20 21 -32 20 -79 -4 -22 -11 -45 -20 -53 -20 -17
0 -80 -46 -109 -80 -24 -27 -29 -55 -13 -65 13 -8 11 -85 -3 -102 -5 -7 -6
-30 -2 -52 5 -32 2 -44 -17 -66 -31 -36 -50 -45 -117 -57 -31 -5 -71 -12 -89
-15 -25 -4 -40 -16 -60 -47 -14 -22 -27 -43 -29 -45 -1 -2 -49 -6 -105 -8 -78
-3 -112 -1 -140 11 -47 20 -50 26 -58 105 -4 36 -13 87 -20 113 -11 35 -11 53
-3 70 19 39 22 55 12 65 -10 10 36 103 50 103 6 0 44 30 131 103 8 6 23 13 34
13 27 2 106 -33 106 -46 0 -6 5 -8 11 -5 6 5 8 22 4 46 -4 22 -3 45 3 52 5 7
12 32 16 56 9 59 33 97 70 113 66 28 241 3 283 -39 14 -14 32 -18 83 -17 125
2 200 15 223 38 12 12 49 30 82 40 33 10 66 24 74 30 8 6 36 16 63 22 l49 11
27 -35 c22 -29 74 -62 97 -62 3 0 5 508 5 1128 l0 1129 -21 19 c-58 52 -62
108 -14 174 l35 48 0 447 0 448 -25 23 c-22 20 -25 29 -19 61 3 21 15 45 25
55 16 14 19 30 19 115 0 82 -4 102 -20 123 -24 30 -24 42 -5 80 12 24 13 30 2
30 -7 0 -28 11 -47 25 -19 14 -45 25 -59 26 -43 0 -112 34 -129 62 -15 24 -14
28 11 64 15 22 27 43 27 48 0 27 -37 95 -53 97 -66 11 55 57 149 58 34 0 76 3
93 6 l31 7 0 169 0 170 -34 34 c-19 19 -38 34 -43 34 -5 0 -20 -11 -33 -25
-18 -20 -21 -28 -12 -37 16 -16 15 -53 -2 -67 -7 -6 -16 -24 -19 -40 -9 -46
-66 -75 -130 -68 -42 6 -55 3 -72 -13 -17 -16 -26 -18 -56 -10 -28 8 -40 19
-57 55 -39 80 -27 153 28 170 13 4 20 15 20 31 0 13 0 27 0 32 1 13 -40 14
-70 0 -35 -15 -40 -27 -40 -88 1 -99 -1 -111 -20 -130 -11 -11 -20 -25 -20
-30 0 -18 -82 -50 -126 -50 -30 0 -46 6 -63 24 -18 19 -20 24 -7 29 8 3 19 21
24 39 6 25 16 35 40 42 36 10 38 15 18 59 -31 72 -34 86 -29 106 4 14 -4 30
-25 51 -17 16 -35 30 -41 30 -14 0 -14 -53 -1 -66 9 -9 0 -86 -19 -154 -10
-38 -47 -38 -86 0 -25 24 -34 28 -38 17 -3 -8 -3 -24 0 -35 3 -14 -2 -24 -16
-31 -22 -12 -28 -45 -11 -56 21 -13 10 -53 -21 -76 -67 -51 -77 -64 -80 -104
-4 -38 -2 -40 21 -37 55 7 84 2 116 -20 40 -27 42 -37 11 -66 -26 -25 -56 -27
-109 -8 -21 8 -38 11 -38 7 0 -4 -29 -22 -65 -39 -35 -18 -67 -37 -70 -42 -3
-5 3 -17 15 -27 11 -10 20 -23 20 -30 0 -12 5 -14 43 -17 6 -1 15 -5 18 -10 7
-9 -12 -66 -22 -66 -4 0 -15 -7 -23 -16 -9 -8 -16 -11 -16 -6 0 5 -10 12 -22
16 -13 3 -32 19 -43 36 -16 25 -27 30 -58 30 -24 0 -46 7 -59 20 -26 24 -44
26 -52 5 -3 -8 -1 -15 5 -15 6 0 7 -5 4 -10 -4 -6 -11 -8 -16 -4 -17 10 -152
11 -182 1 -15 -5 -46 -10 -70 -11 -36 -1 -42 -4 -42 -23 -1 -25 -32 -53 -52
-46 -6 3 -17 19 -22 36 -7 20 -22 36 -38 43 -43 18 -73 23 -73 13 0 -5 -6 -9
-14 -9 -8 0 -17 -14 -21 -30 -5 -21 -14 -32 -31 -36 -17 -4 -32 -22 -49 -60
-14 -30 -31 -54 -39 -54 -8 0 -28 -13 -44 -30 -25 -25 -39 -30 -78 -30 -57 0
-83 -19 -76 -55 2 -14 10 -25 17 -25 8 0 23 -16 36 -36 19 -32 20 -40 10 -74
-11 -39 -55 -80 -84 -80 -24 0 -71 -23 -105 -52 -35 -30 -39 -38 -17 -38 18 0
35 -31 35 -62 0 -17 -3 -19 -9 -9 -7 10 -9 11 -13 0 -3 -9 -12 -8 -36 7 -23
13 -37 16 -46 9 -50 -37 -66 -45 -93 -51 -28 -5 -37 0 -85 48 -62 63 -98 106
-98 118 0 5 -14 12 -31 15 -18 4 -45 20 -60 36 -28 29 -29 32 -25 117 5 134
16 157 56 122 23 -20 25 -20 37 -4 17 23 16 29 -2 44 -12 10 -21 10 -44 0 -22
-9 -42 -9 -91 1 -58 11 -63 11 -83 -9 -20 -21 -20 -22 -3 -74 20 -59 12 -127
-15 -119 -42 12 -108 4 -133 -16 -15 -12 -40 -24 -55 -28 -30 -6 -36 -21 -47
-109 -2 -16 -11 -38 -21 -48 -9 -10 -12 -18 -7 -18 5 0 2 -6 -7 -13 -9 -7 -19
-22 -23 -35 -4 -12 -11 -20 -16 -17 -4 3 -13 -2 -19 -9 -10 -11 -19 -12 -42
-4 -16 5 -29 14 -29 19 0 13 -42 53 -58 55 -19 3 -41 34 -48 66 -9 38 -28 52
-44 33 -25 -30 -56 -18 -91 36 -26 41 -44 57 -86 75 -67 30 -87 24 -78 -25 4
-20 8 -56 10 -81 2 -25 6 -56 9 -70 20 -83 29 -181 18 -192 -15 -15 -52 17
-52 45 0 10 -7 40 -15 66 -8 25 -20 67 -27 92 -8 34 -20 52 -40 64 -16 9 -45
42 -66 72 l-36 55 -51 -6 c-32 -3 -54 -11 -60 -23 -5 -9 -20 -27 -32 -40 -22
-22 -22 -23 -2 -33 10 -6 19 -17 19 -25 0 -8 6 -18 14 -22 23 -13 55 -75 61
-118 7 -45 -8 -95 -28 -95 -8 0 -22 -9 -32 -20 -10 -11 -21 -20 -25 -20 -22 0
-64 157 -62 228 1 24 -2 52 -8 62 -11 21 -40 28 -40 10 0 -20 -28 -9 -34 13
-3 12 -31 42 -61 67 -101 80 -117 100 -110 139 10 52 25 70 65 73 30 3 35 7
38 32 2 16 -1 49 -8 74 -10 41 -9 46 12 60 12 9 37 15 55 13 46 -4 73 7 83 35
6 14 21 26 37 30 50 11 110 53 162 110 60 68 125 114 152 107 10 -3 16 -9 13
-14 -3 -5 13 -28 34 -51 39 -42 40 -42 65 -25 25 16 28 47 6 47 -5 0 -9 6 -9
14 0 15 -39 48 -49 42 -3 -2 -7 20 -7 49 -2 44 -7 57 -33 84 -26 27 -34 30
-52 21 -11 -6 -56 -13 -99 -14 -53 -2 -87 -8 -104 -19 -14 -10 -32 -17 -41
-17 -33 0 -5 -36 47 -57 20 -9 25 -17 21 -32 -3 -12 -12 -21 -19 -21 -8 0 -14
-4 -14 -9 0 -5 -18 -12 -40 -16 -51 -9 -100 11 -100 41 0 23 35 66 62 76 17 7
14 48 -2 48 -5 0 -11 9 -15 19 -6 19 -8 19 -58 -5 -29 -13 -60 -24 -70 -24
-11 0 -31 -6 -45 -13 -15 -8 -45 -22 -67 -33 -33 -16 -41 -25 -43 -52 -2 -18
-8 -30 -13 -27 -5 4 -9 1 -9 -4 0 -6 -18 -19 -39 -28 -32 -14 -41 -24 -46 -51
-7 -37 -24 -48 -52 -34 -14 8 -24 5 -42 -9 -13 -10 -31 -19 -40 -19 -9 0 -22
-5 -28 -11 -15 -15 -45 13 -37 34 3 8 -2 22 -11 31 -16 15 -19 15 -53 -5 -21
-12 -45 -29 -55 -38 -14 -12 -45 -16 -120 -17 -56 -1 -107 2 -113 7 -6 5 -49
14 -95 20 -46 6 -92 17 -103 25 -13 9 -26 10 -43 3 -13 -5 -26 -9 -28 -9 -10
0 -14 92 -4 111 9 18 7 30 -11 70 -25 53 -23 70 15 95 24 15 28 15 68 0 37
-14 52 -14 103 -4 32 6 70 20 83 30 13 10 30 18 38 18 7 0 19 11 25 25 9 21 8
28 -7 45 -16 17 -27 19 -114 14 -53 -3 -102 -7 -109 -9 -7 -3 -40 3 -74 11
-33 9 -74 13 -89 10 -16 -3 -41 -8 -56 -12 -21 -4 -37 2 -64 25 -31 26 -37 38
-44 88 -10 73 -6 202 6 224 5 10 33 26 61 37 87 33 228 104 228 115 0 5 -31
39 -69 76 -65 62 -91 107 -91 154 0 24 48 135 69 160 28 33 80 48 143 41 l57
-7 -5 64 c-8 86 8 108 89 116 49 5 60 10 72 32 7 14 29 41 49 60 31 30 42 34
93 36 53 2 75 7 140 38 55 25 331 -6 426 -48 10 -4 24 -23 32 -42 14 -34 17
-35 52 -28 21 4 43 11 48 15 14 12 166 1 182 -12 7 -6 13 -21 13 -34 0 -13 4
-24 8 -24 4 0 12 -14 17 -32 10 -31 21 -38 89 -53 28 -7 142 24 211 55 54 26
74 29 206 34 l146 5 58 -49 c32 -27 66 -61 75 -75 24 -37 75 -82 102 -91 13
-4 33 -15 46 -25 88 -69 212 -88 331 -53 32 10 94 17 146 18 113 1 150 -15
193 -85 17 -27 37 -49 45 -49 7 0 31 15 53 33 21 19 62 42 91 51 28 9 57 24
65 33 7 9 29 26 50 39 26 17 35 28 31 42 -5 20 38 115 57 127 5 3 10 29 10 56
0 102 82 201 179 215 25 4 51 11 58 16 8 6 11 42 10 106 l-1 97 55 113 c31 62
53 115 48 117 -4 3 -27 8 -51 11 -42 6 -48 3 -102 -41 -32 -26 -71 -51 -87
-57 -48 -17 -111 -1 -172 42 -76 55 -91 53 -112 -12 -10 -29 -21 -57 -26 -63
-5 -5 -9 -17 -9 -28 0 -15 -6 -18 -37 -15 -34 3 -38 6 -49 43 -8 30 -18 42
-40 50 -16 6 -38 16 -49 22 -15 8 -27 8 -50 -1 -21 -9 -39 -10 -60 -3 -16 6
-36 11 -42 13 -18 5 -16 47 3 88 22 44 13 89 -16 78 -11 -4 -57 -4 -102 -1
-46 4 -106 4 -133 2 -39 -4 -54 -2 -64 11 -12 14 -11 19 3 34 9 10 16 23 16
28 0 6 15 18 33 27 30 15 -47 16 -1054 16 -1062 1 -1086 1 -1126 -19 -23 -11
-56 -21 -75 -24 -93 -12 -102 -16 -136 -67 -28 -42 -37 -49 -66 -49 -21 0 -42
9 -59 24 l-27 25 -27 -23 c-50 -41 -63 -45 -109 -31 -25 7 -59 10 -85 6 -55
-9 -98 2 -131 32 -20 19 -30 21 -56 15 -22 -6 -32 -15 -32 -27 0 -11 -31 -48
-72 -85 -64 -58 -78 -66 -113 -66 -22 0 -56 5 -75 11 -98 29 -244 13 -300 -34
-16 -14 -34 -27 -40 -29 -5 -1 -16 -27 -24 -56 -7 -29 -23 -63 -35 -76 -19
-20 -28 -22 -56 -16 -54 12 -113 66 -140 126 -13 30 -28 54 -33 54 -5 0 -30
27 -55 60 -53 68 -79 76 -117 35 l-23 -24 -48 25 c-59 29 -94 24 -118 -17 -9
-16 -22 -29 -28 -29 -7 0 -13 -5 -13 -12 0 -6 -8 -4 -19 6 -13 12 -21 37 -25
79 -8 74 -33 113 -64 103 -11 -4 -24 -16 -27 -27 -4 -11 -26 -29 -50 -39 -23
-10 -46 -23 -50 -29 -3 -6 -11 -9 -16 -5 -6 3 -23 -8 -38 -25 -27 -30 -29 -31
-62 -17 -19 8 -41 26 -49 40 -7 14 -18 26 -23 26 -5 0 -20 9 -33 19 -15 12
-32 17 -47 13 -37 -10 -86 -42 -92 -62 -3 -10 -19 -24 -36 -31 -17 -6 -43 -31
-57 -53 -60 -94 -87 -110 -141 -81 -29 15 -41 33 -41 65 0 31 -25 42 -77 34
-37 -5 -57 -16 -88 -46 -37 -37 -43 -39 -85 -35 -33 3 -52 0 -71 -14 -22 -15
-60 -34 -89 -44 -3 -1 -12 -4 -20 -7 -40 -14 -114 -28 -150 -28 -43 0 -62 19
-75 73 -22 85 27 168 129 217 68 33 84 55 78 105 l-4 35 -1182 -1 c-827 -1
-1169 -4 -1142 -11z m7714 -141 c9 4 12 -5 9 -31 -2 -20 1 -37 7 -39 14 -5
-11 -54 -32 -62 -11 -4 -13 1 -10 20 3 14 2 25 -2 25 -4 0 -10 9 -13 21 -3 11
-15 23 -26 26 -25 6 -26 16 -6 37 11 11 22 13 38 7 12 -4 28 -6 35 -4z m160
-238 c-6 -4 -8 -14 -5 -23 4 -9 2 -16 -3 -16 -18 0 -22 22 -9 46 9 17 15 21
20 12 4 -7 3 -16 -3 -19z m-3432 -312 c-4 -16 -17 -29 -36 -35 -16 -6 -30 -9
-30 -6 0 2 -9 -5 -20 -16 -11 -11 -25 -17 -33 -15 -8 4 -13 -3 -14 -16 -1 -13
-12 -32 -23 -43 l-21 -21 -25 30 c-36 45 -21 79 40 92 16 3 31 14 33 25 3 10
10 18 15 18 5 0 7 9 3 19 -5 18 0 20 47 23 59 3 76 -11 64 -55z m-578 -200
c16 -11 15 -22 -4 -41 -33 -33 -73 -9 -58 36 6 19 35 21 62 5z m-4923 -177 c9
-20 15 -48 13 -61 -3 -22 -7 -24 -57 -22 -31 2 -58 8 -63 15 -14 21 1 92 23
110 28 24 62 7 84 -42z m819 24 c20 -20 20 -20 -4 -54 -14 -20 -26 -27 -40
-23 -36 10 -38 77 -2 86 29 8 30 7 46 -9z m-273 -129 c116 -18 149 -27 186
-54 41 -31 60 -75 69 -167 12 -107 10 -114 -31 -114 -22 0 -42 -8 -57 -22 -23
-23 -69 -45 -123 -57 -68 -16 -125 -36 -125 -43 0 -4 -7 -8 -15 -8 -8 0 -15 4
-15 8 0 4 -10 8 -22 9 -36 3 -130 118 -134 163 0 8 8 31 19 50 71 124 98 177
107 211 12 45 10 45 141 24z m-296 -35 c3 -11 4 -24 1 -29 -10 -15 -65 -31
-71 -20 -4 5 -15 9 -26 9 -11 0 -19 7 -19 16 0 8 5 12 10 9 6 -3 10 -1 10 5 0
6 3 9 8 7 4 -3 21 1 37 8 41 18 43 18 50 -5z m5558 -355 c47 -22 79 -75 75
-122 -3 -36 -5 -38 -46 -47 -37 -8 -47 -6 -89 20 -79 50 -109 112 -69 146 26
22 87 23 129 3z m-4688 -159 c46 -20 45 -43 -4 -94 -38 -39 -89 -62 -137 -62
-22 0 -67 43 -78 74 -10 30 12 84 37 89 52 10 150 6 182 -7z m1008 -19 c6 -16
-3 -31 -21 -35 -18 -3 -27 28 -11 39 19 12 26 11 32 -4z m3942 3 c-3 -5 -12
-10 -18 -10 -7 0 -6 4 3 10 19 12 23 12 15 0z m-2718 -536 c30 -19 39 -68 19
-99 -17 -26 -60 -51 -86 -50 -34 1 -80 32 -97 63 -16 29 -16 35 -3 60 9 15 27
32 40 39 29 15 93 8 127 -13z m3943 -33 c0 -6 11 -6 29 0 56 20 106 -31 76
-77 -21 -32 -37 -38 -80 -30 -28 6 -36 13 -43 39 -5 18 -5 35 0 38 5 3 6 13 2
22 -3 10 -1 17 5 17 6 0 11 -4 11 -9z m-5908 -129 c16 -16 -12 -87 -51 -132
l-36 -42 -39 18 c-37 18 -38 20 -33 64 4 35 13 51 42 78 32 30 42 33 73 28 19
-3 39 -9 44 -14z m5904 -165 c15 -13 23 -27 18 -30 -10 -6 -64 34 -64 47 0 13
20 5 46 -17z m3051 -406 c29 -6 57 -22 86 -48 38 -35 52 -42 106 -48 80 -9 98
-27 97 -97 -1 -50 -2 -53 -33 -61 -29 -9 -36 -6 -67 25 -40 40 -69 51 -90 34
-23 -18 -30 -55 -12 -62 9 -3 16 -12 16 -20 0 -8 5 -14 10 -14 6 0 10 -5 10
-10 0 -6 -15 -8 -39 -4 -47 7 -97 -22 -107 -62 -11 -41 -48 -42 -101 0 -25 20
-50 36 -53 36 -4 0 -20 -16 -34 -35 -19 -24 -35 -35 -52 -35 -44 0 -144 79
-144 114 0 11 -12 44 -27 71 -40 78 -15 135 80 179 62 29 87 33 149 23 35 -6
54 -4 75 7 31 17 68 19 130 7z m1092 -121 c31 -5 82 -13 113 -16 62 -6 76 -21
64 -70 -7 -25 -52 -54 -86 -54 -11 0 -42 -11 -68 -25 -72 -38 -106 -42 -125
-15 -12 18 -13 27 -4 47 8 18 8 32 -1 57 -16 45 -15 63 6 75 22 13 33 13 101
1z m-9644 -65 c14 -13 25 -29 25 -35 0 -17 -39 -50 -58 -50 -18 0 -65 29 -48
30 6 0 1 7 -10 15 -18 14 -18 16 -1 26 9 5 17 17 17 24 0 24 48 18 75 -10z
m4258 -326 c-6 -6 -14 -5 -22 5 -18 22 -4 40 16 20 10 -10 12 -19 6 -25z m187
-6 c0 -7 5 -13 10 -13 6 0 5 -8 -2 -20 -17 -27 -1 -38 18 -12 17 24 39 30 31
8 -8 -19 20 -28 44 -15 33 17 60 19 65 4 3 -8 12 -11 22 -8 12 5 14 2 9 -12
-6 -15 -3 -17 22 -12 19 4 33 1 41 -8 16 -19 30 -10 30 20 0 22 4 24 30 20 17
-3 43 -7 59 -10 16 -2 43 3 60 11 28 14 33 14 53 0 29 -20 42 -20 63 1 11 10
19 12 23 6 4 -5 20 -13 37 -16 l30 -5 -24 19 -25 20 50 -2 c47 -3 74 -16 74
-37 0 -5 13 -12 29 -15 32 -7 64 -34 56 -48 -3 -4 6 -11 20 -15 17 -4 23 -10
17 -16 -11 -11 -4 -50 7 -44 4 3 8 -6 9 -19 1 -13 15 -37 32 -53 31 -32 44
-66 15 -42 -8 7 -15 8 -15 2 0 -5 6 -15 14 -22 8 -6 12 -18 9 -26 -3 -8 -1
-14 5 -14 5 0 13 -11 16 -25 4 -14 15 -34 25 -44 27 -27 32 -48 13 -56 -15 -5
-14 -9 8 -25 14 -11 19 -20 13 -20 -15 0 -18 -40 -3 -40 6 0 10 5 10 11 0 5 5
7 11 4 6 -5 4 -11 -7 -19 -14 -11 -15 -15 -3 -34 8 -12 18 -22 24 -22 5 0 3
-5 -5 -10 -13 -8 -11 -13 11 -32 24 -21 53 -77 54 -103 1 -31 31 -85 46 -85
10 0 21 -5 25 -12 4 -6 3 -8 -4 -5 -5 4 -17 5 -25 1 -12 -4 -12 -10 0 -46 7
-22 24 -49 36 -59 20 -17 20 -18 2 -12 -19 6 -19 5 -3 -13 11 -12 15 -28 11
-42 -3 -12 0 -28 6 -36 7 -8 11 -18 9 -22 -1 -5 6 -26 15 -48 9 -21 18 -58 20
-82 1 -23 6 -46 10 -51 5 -4 5 0 2 8 -9 23 30 32 47 11 11 -13 10 -15 -4 -10
-16 7 -35 -18 -23 -30 3 -3 5 0 5 6 0 7 5 12 11 12 6 0 9 -6 6 -14 -3 -8 -1
-16 6 -19 6 -2 -1 -12 -15 -21 -26 -17 -27 -19 -13 -46 8 -16 15 -40 15 -55 0
-14 2 -25 5 -25 12 0 55 24 55 31 0 4 22 18 49 31 27 12 47 26 45 30 -3 4 0 8
5 8 6 0 11 -3 11 -7 0 -10 -52 -63 -62 -63 -5 0 -39 -18 -76 -40 -37 -22 -84
-46 -104 -52 -21 -6 -38 -16 -37 -22 3 -23 -1 -36 -12 -36 -6 0 -9 9 -6 20 4
18 0 19 -57 19 -33 0 -95 9 -136 20 -282 79 -409 97 -603 87 -177 -9 -349 -51
-508 -125 -179 -84 -289 -81 -517 14 -176 73 -408 105 -623 85 -136 -12 -243
-37 -409 -95 -121 -42 -193 -44 -270 -8 -25 12 -60 27 -78 33 -18 7 -31 15
-28 17 2 3 13 0 25 -6 19 -10 19 -10 7 13 -11 23 -12 58 -3 126 2 14 -1 31 -6
38 -7 8 -6 17 1 24 7 7 12 22 12 34 0 13 5 26 10 29 6 3 10 15 10 26 0 11 7
33 15 49 11 22 12 29 2 33 -8 2 -7 9 6 21 16 16 21 30 18 49 0 4 3 7 8 7 5 0
18 18 28 39 14 27 16 37 6 34 -7 -3 -13 2 -13 10 0 9 9 19 20 22 17 5 21 14
20 40 -1 11 29 35 41 33 6 -2 13 6 14 17 1 11 6 29 10 39 7 15 5 18 -6 14 -24
-9 -12 44 17 77 32 38 30 52 -3 25 -25 -20 -28 -20 -31 -5 -2 9 6 27 18 40 15
16 18 24 9 27 -8 3 -9 9 -4 19 5 8 8 22 7 32 -2 9 2 17 9 17 6 0 9 8 6 20 -3
12 0 20 8 20 7 0 15 9 18 20 3 13 0 20 -9 20 -21 0 -17 20 4 20 15 1 15 2 -3
16 -12 10 -14 14 -5 12 14 -4 39 30 44 60 1 8 7 17 12 20 6 4 10 21 9 37 -1
17 7 44 17 61 10 17 14 34 11 38 -4 4 3 16 17 28 14 11 18 18 9 15 -9 -3 -22
-1 -30 4 -10 6 -3 13 28 25 23 9 40 21 36 26 -3 6 3 8 14 4 13 -4 25 0 33 9
10 12 29 16 74 14 34 -1 70 -5 81 -9 13 -5 28 -3 39 5 17 13 17 13 -1 18 -10
3 2 4 26 2 50 -4 101 4 101 15 0 5 -28 11 -62 15 -35 5 -57 10 -50 12 7 3 42
0 78 -7 54 -9 70 -8 88 3 18 12 23 12 34 1 6 -7 12 -20 12 -29 0 -13 4 -14 20
-5 23 12 26 26 8 33 -7 2 0 3 17 1 16 -3 31 -8 35 -12 9 -13 70 -8 70 6 0 7 5
10 10 7 6 -3 18 1 27 10 14 14 14 18 2 27 -16 11 -1 8 74 -15 40 -13 47 -13
47 -1 0 8 -6 14 -14 14 -8 0 -17 4 -21 10 -6 10 61 7 72 -4 3 -3 19 -6 35 -6
26 0 38 -13 21 -23 -5 -2 -2 -2 5 0 80 20 92 16 179 -57 14 -12 45 -2 57 18 5
9 11 11 15 4 3 -6 26 -8 53 -5 26 3 45 9 43 13 -3 5 13 11 36 15 22 4 43 14
46 22 3 8 11 12 19 9 19 -7 94 32 94 49 0 20 15 19 46 -2 25 -16 27 -16 36 1
9 16 11 16 28 1 17 -15 19 -15 28 1 5 10 14 14 22 9 8 -5 9 -10 1 -18 -19 -19
-12 -31 7 -14 10 10 25 17 33 18 11 0 12 2 0 6 -9 4 -10 8 -3 12 19 11 52 7
52 -6z m-853 -19 c-5 -5 -57 13 -57 20 0 3 14 0 31 -6 16 -6 28 -12 26 -14z
m573 12 c0 -3 -4 -8 -10 -11 -5 -3 -10 -1 -10 4 0 6 5 11 10 11 6 0 10 -2 10
-4z m-432 -18 c18 -18 15 -28 -8 -28 -11 0 -20 5 -20 10 0 6 6 10 13 10 8 0 7
4 -3 10 -8 5 -10 10 -4 10 5 0 15 -5 22 -12z m1112 2 c0 -5 -6 -10 -14 -10 -8
0 -18 5 -21 10 -3 6 3 10 14 10 12 0 21 -4 21 -10z m-1350 -10 c0 -5 -5 -10
-11 -10 -5 0 -7 5 -4 10 3 6 8 10 11 10 2 0 4 -4 4 -10z m560 -25 c0 -2 -10
-10 -22 -16 -21 -11 -22 -11 -9 4 13 16 31 23 31 12z m-893 -11 c-3 -3 -12 -4
-19 -1 -8 3 -5 6 6 6 11 1 17 -2 13 -5z m743 -14 c0 -5 -5 -10 -11 -10 -5 0
-7 5 -4 10 3 6 8 10 11 10 2 0 4 -4 4 -10z m5808 -73 c15 -18 3 -59 -16 -55
-21 4 -36 32 -29 52 8 19 30 21 45 3z m-288 -502 c22 -23 20 -127 -4 -154 -42
-47 -113 -32 -172 37 l-31 36 -49 -19 c-27 -10 -51 -19 -54 -19 -3 -1 -6 18
-7 40 -1 36 3 45 30 65 25 18 47 24 105 26 40 2 81 7 89 12 20 11 71 -3 93
-24z m-2712 -27 c12 -15 -5 -64 -33 -92 -15 -15 -16 -19 -4 -27 8 -5 22 -9 31
-9 9 0 20 -5 23 -11 4 -6 19 2 36 20 32 34 49 39 49 16 0 -18 12 -19 28 -3 21
21 27 -2 9 -33 -22 -39 -21 -46 3 -93 17 -35 18 -41 4 -67 -11 -23 -21 -29
-47 -29 -17 0 -43 9 -57 20 -35 27 -52 25 -86 -11 -35 -38 -88 -62 -117 -54
-50 15 -107 46 -117 64 -5 11 -10 35 -10 53 0 46 71 117 120 121 49 3 103 60
98 104 -3 23 1 34 12 37 30 8 48 6 58 -6z m736 -14 c9 -8 16 -19 16 -24 0 -5
3 -15 6 -23 7 -19 -33 -57 -60 -57 -45 0 -70 55 -46 101 13 23 62 26 84 3z
m-1874 -126 c0 -6 -6 -5 -15 2 -8 7 -15 14 -15 16 0 2 7 1 15 -2 8 -4 15 -11
15 -16z m-7050 -159 c0 -11 -4 -17 -10 -14 -5 3 -10 13 -10 21 0 8 5 14 10 14
6 0 10 -9 10 -21z m3947 -81 c0 -13 -1 -17 -4 -10 -3 6 -9 10 -14 7 -5 -4 -6
1 -3 9 9 23 20 19 21 -6z m-47 -118 c0 -5 -4 -10 -10 -10 -5 0 -10 5 -10 10 0
6 5 10 10 10 6 0 10 -4 10 -10z m4212 -88 c16 -16 -1 -71 -28 -88 -33 -22 -94
-21 -111 3 -18 23 -9 63 20 86 23 20 98 20 119 -1z m-847 -52 c3 -5 1 -10 -4
-10 -6 0 -11 5 -11 10 0 6 2 10 4 10 3 0 8 -4 11 -10z m-3460 -170 c3 -4 -4
-10 -15 -13 -14 -3 -20 -14 -20 -31 0 -24 -2 -25 -20 -16 -23 12 -27 32 -5 24
10 -4 15 0 15 14 0 11 -8 22 -17 25 -10 2 -1 4 20 4 20 1 39 -3 42 -7z m-4130
-103 c4 -13 14 -23 26 -24 10 -1 26 -9 35 -17 14 -14 14 -16 0 -16 -8 0 -24
-10 -36 -22 -11 -12 -20 -16 -20 -10 0 7 -7 12 -15 12 -9 0 -18 7 -21 15 -4 8
-15 15 -25 15 -10 0 -19 5 -19 10 0 6 6 10 13 10 8 0 22 9 31 19 17 18 17 19
-1 24 -15 4 -14 5 4 6 16 1 24 -6 28 -22z m7283 -4 c-10 -2 -26 -2 -35 0 -10
3 -2 5 17 5 19 0 27 -2 18 -5z m-2938 -32 c0 -17 -18 -21 -24 -6 -3 9 0 15 9
15 8 0 15 -4 15 -9z m107 -7 c-3 -3 -12 -4 -19 -1 -8 3 -5 6 6 6 11 1 17 -2
13 -5z m6203 -119 c6 -8 13 -29 13 -47 1 -18 6 -36 10 -39 15 -11 -17 -17 -40
-8 -19 7 -23 16 -23 52 0 57 14 73 40 42z m-7555 -29 c41 -17 54 -41 48 -83
-5 -31 -8 -33 -45 -33 -71 0 -117 52 -97 108 10 26 44 29 94 8z m-2789 -1042
c3 -19 2 -45 -3 -56 -9 -20 -9 -20 -35 3 l-25 23 19 33 c25 42 35 42 44 -3z
m1914 -184 c15 -16 38 -30 49 -30 12 0 29 -4 39 -9 9 -5 24 -12 33 -14 9 -3
20 -18 23 -33 4 -15 30 -51 59 -81 29 -30 54 -60 56 -66 2 -7 16 -39 30 -72
15 -33 37 -88 48 -123 l21 -64 -22 -24 c-17 -21 -39 -28 -116 -41 -67 -11
-101 -22 -114 -35 -17 -19 -112 -66 -164 -82 -30 -10 -80 13 -86 39 -2 11 -1
54 4 95 4 41 7 77 5 80 -2 3 -32 5 -67 4 -63 0 -63 -1 -83 -39 -36 -71 -44
-74 -76 -35 -26 31 -33 51 -32 103 0 21 -7 21 -33 2 -24 -18 -70 -19 -77 -1
-8 19 21 98 41 114 9 6 24 10 34 6 13 -4 18 0 18 15 0 10 3 26 6 35 4 11 -4
16 -33 21 -68 12 -71 14 -78 57 -9 49 1 58 68 58 48 0 167 -49 167 -70 0 -5
15 -6 33 -3 25 4 38 -1 60 -21 43 -40 68 -32 83 28 6 25 4 27 -13 22 -32 -10
-47 35 -27 82 9 20 17 48 18 62 1 24 13 30 94 49 2 1 17 -12 32 -29z m6379
-239 c7 -5 11 -13 7 -19 -3 -5 5 -13 19 -16 27 -7 105 -77 105 -94 0 -23 -40
-52 -71 -52 -35 0 -93 53 -112 103 -4 10 -11 16 -15 13 -5 -3 -17 0 -27 8 -14
10 -15 17 -6 34 9 17 16 19 41 12 16 -5 29 -5 29 -2 -4 23 7 28 30 13z m-8571
-41 c17 -38 7 -87 -21 -102 -25 -13 -67 -19 -68 -10 -9 55 -5 114 7 119 8 3
11 9 8 14 -3 5 10 9 28 9 27 0 35 -5 46 -30z m8107 -60 c28 -7 94 -12 148 -11
84 2 97 0 97 -14 0 -9 -7 -23 -15 -31 -17 -18 -121 -55 -129 -47 -9 9 -84 -44
-166 -117 -79 -70 -165 -130 -186 -130 -7 0 -22 13 -34 29 -24 34 -20 60 17
130 12 24 23 55 23 68 0 47 29 82 87 108 17 8 34 19 37 23 7 11 59 8 121 -8z
m-5218 -226 c29 -8 37 -41 12 -54 -27 -15 -59 4 -59 35 0 26 9 29 47 19z
m7068 -54 c8 -13 -13 -50 -29 -50 -12 0 -25 -17 -22 -30 0 -3 -7 -16 -17 -30
-10 -15 -17 -43 -17 -73 0 -71 -42 -161 -85 -181 -18 -9 -48 -16 -67 -16 -37
0 -78 -23 -78 -45 0 -7 -17 -23 -37 -35 -32 -19 -56 -23 -151 -26 -62 -2 -122
-8 -132 -14 -62 -33 -118 7 -121 88 -6 180 -8 171 36 208 33 28 48 34 86 34
50 0 65 11 71 50 4 35 61 60 150 67 55 4 83 1 112 -11 51 -21 79 -20 118 4 18
11 47 20 65 20 21 0 41 9 57 25 26 26 50 32 61 15z m1020 -20 c3 -5 -1 -10
-10 -10 -9 0 -13 5 -10 10 3 6 8 10 10 10 2 0 7 -4 10 -10z m-6765 -79 c0 -5
-7 -11 -15 -15 -9 -3 -15 0 -15 9 0 8 7 15 15 15 8 0 15 -4 15 -9z m3614 -115
c3 -17 7 -49 10 -71 4 -27 14 -46 30 -58 l25 -18 -21 -34 c-11 -19 -24 -35
-28 -35 -5 0 -21 -11 -36 -25 -15 -14 -35 -25 -44 -25 -10 0 -31 -3 -47 -6
-24 -5 -37 0 -62 23 -46 42 -88 132 -80 172 7 34 33 60 60 61 17 0 119 39 132
50 4 4 19 5 32 2 18 -3 26 -12 29 -36z m3560 21 c46 -46 -22 -81 -74 -39 -20
16 -21 21 -9 40 18 29 54 28 83 -1z m-10341 -130 c8 -20 -1 -107 -12 -120 -5
-7 -8 -32 -7 -57 2 -25 -4 -59 -12 -76 -12 -26 -13 -47 -5 -109 l9 -76 -48
-44 c-52 -46 -79 -54 -200 -59 -37 -1 -84 -10 -106 -20 -33 -15 -41 -25 -55
-70 -26 -81 -42 -91 -151 -92 -59 0 -110 -7 -145 -19 -49 -17 -55 -17 -80 -2
-20 13 -26 24 -27 54 0 21 -4 47 -9 58 -32 76 -33 84 -22 99 7 9 26 17 44 19
17 1 30 4 28 7 -11 17 117 100 154 100 6 0 21 11 33 25 12 14 26 25 32 25 6 1
27 14 46 30 19 17 42 30 52 30 24 0 30 15 34 83 2 33 9 66 15 73 24 29 127 9
164 -32 19 -21 43 -23 61 -3 9 10 24 19 32 19 8 0 12 6 8 15 -5 14 26 83 43
95 4 3 10 13 14 23 12 32 99 51 110 24z m-983 -27 c0 -5 -4 -10 -10 -10 -5 0
-10 5 -10 10 0 6 5 10 10 10 6 0 10 -4 10 -10z m4482 -32 c-9 -9 -15 -9 -24 0
-9 9 -7 12 12 12 19 0 21 -3 12 -12z m-252 -22 c0 -9 -7 -12 -20 -9 -11 3 -20
9 -20 14 0 5 9 9 20 9 11 0 20 -6 20 -14z m5616 -87 c-5 -41 -21 -57 -44 -43
-37 24 -21 74 24 74 20 0 23 -4 20 -31z m-8555 -21 c16 -25 -19 -65 -65 -77
-66 -16 -94 -14 -106 10 -23 41 51 93 119 84 25 -3 48 -10 52 -17z m545 -23
c-2 -7 1 -18 7 -24 14 -14 -30 -6 -48 9 -21 18 -8 38 21 32 15 -3 23 -10 20
-17z m2704 -5 c0 -5 -7 -7 -15 -4 -8 4 -15 8 -15 10 0 2 7 4 15 4 8 0 15 -4
15 -10z m1960 -85 c0 -14 -4 -25 -10 -25 -11 0 -14 33 -3 43 11 11 13 8 13
-18z m5146 -100 c13 -20 14 -27 2 -42 -16 -22 -30 -25 -63 -13 -46 18 -26 79
27 80 10 0 25 -11 34 -25z m-6151 -35 c-3 -5 -10 -10 -16 -10 -5 0 -9 5 -9 10
0 6 7 10 16 10 8 0 12 -4 9 -10z m2155 -24 c21 -66 -39 -137 -103 -121 -31 8
-39 27 -31 74 9 52 39 81 85 81 34 0 39 -3 49 -34z m-1760 -36 c0 -5 -5 -10
-11 -10 -5 0 -7 5 -4 10 3 6 8 10 11 10 2 0 4 -4 4 -10z m-2013 -50 c2 -21
-11 -27 -22 -10 -7 11 2 30 13 30 4 0 8 -9 9 -20z m7057 -27 c91 -50 84 -49
116 -18 21 20 42 29 78 33 l50 4 71 -70 c75 -73 92 -114 52 -127 -39 -12 -108
-7 -168 14 -74 25 -87 26 -116 6 -12 -8 -31 -14 -42 -14 -11 1 -38 -1 -60 -4
-59 -7 -71 4 -83 73 -12 66 -5 102 25 118 22 13 26 12 77 -15z m-6904 -8 c0
-9 -9 -15 -23 -15 -13 0 -29 -6 -36 -12 -10 -11 -11 -10 -6 3 6 15 38 37 58
38 4 1 7 -6 7 -14z m50 -25 c0 -5 -7 -10 -16 -10 -8 0 -12 5 -9 10 3 6 10 10
16 10 5 0 9 -4 9 -10z m38 -26 c-10 -9 -58 -12 -52 -3 3 5 17 9 31 9 15 0 24
-3 21 -6z m64 -70 c5 -3 1 -12 -8 -19 -14 -10 -22 -10 -36 -1 -10 6 -18 13
-18 16 0 8 50 11 62 4z m3096 -29 c-3 -3 -9 2 -12 12 -6 14 -5 15 5 6 7 -7 10
-15 7 -18z m-3058 -9 c0 -2 -7 -7 -16 -10 -8 -3 -12 -2 -9 4 6 10 25 14 25 6z
m3516 -31 c18 -28 11 -47 -14 -38 -27 11 -42 30 -36 47 9 23 31 19 50 -9z
m-553 -86 c-6 -6 -19 -9 -29 -6 -16 4 -15 5 4 6 12 0 22 6 22 13 0 6 3 8 7 5
4 -4 2 -12 -4 -18z m3878 -74 c25 -16 -56 -67 -91 -58 -25 7 -38 52 -19 64 15
9 92 4 110 -6z m-3701 -44 c0 -5 3 -18 6 -28 6 -16 5 -16 -9 2 -19 23 -21 35
-7 35 6 0 10 -4 10 -9z m-2124 -10 c-4 -5 -1 -11 5 -13 7 -2 5 -9 -5 -17 -14
-12 -16 -11 -12 10 6 31 5 29 12 29 3 0 3 -4 0 -9z m-3583 -53 c-8 -15 -20
-31 -27 -35 -6 -5 -29 -42 -50 -83 -45 -88 -68 -114 -96 -105 -32 10 -42 41
-35 105 7 63 22 83 92 126 27 17 51 23 84 22 l45 -2 -13 -28z m1335 -28 c24
-16 48 -30 55 -33 9 -3 9 -7 0 -19 -7 -8 -10 -18 -6 -21 3 -4 -1 -7 -9 -7 -9
0 -18 -5 -20 -11 -2 -6 -16 -11 -32 -11 -19 0 -31 -8 -38 -24 -12 -26 -32 -30
-72 -14 -36 13 -43 51 -17 94 18 29 74 76 91 76 3 0 24 -13 48 -30z m1122 16
c0 -2 -11 -6 -25 -8 -13 -3 -22 -1 -19 3 5 9 44 13 44 5z m80 -16 c8 -5 11
-13 6 -17 -5 -4 -11 -2 -13 5 -3 6 -9 10 -13 7 -5 -3 -11 -1 -15 5 -8 13 15
13 35 0z m-671 -80 c0 -25 0 -56 0 -69 l1 -25 20 22 c11 12 20 26 20 32 0 14
30 13 34 -2 3 -7 7 -25 10 -40 4 -16 13 -28 22 -28 9 0 12 -5 8 -12 -13 -21
-11 -108 2 -108 6 0 17 -7 24 -15 10 -13 15 -12 36 3 27 20 31 32 9 32 -8 0
-15 5 -15 11 0 5 5 7 10 4 6 -3 10 -1 10 4 0 6 6 11 14 11 8 0 23 10 33 23 10
12 25 23 33 25 8 2 28 17 44 33 33 34 49 32 17 -2 -21 -23 -29 -55 -11 -44 6
3 10 13 10 21 0 8 6 14 14 14 8 0 24 11 37 25 13 13 30 25 37 25 6 0 12 5 12
10 0 6 6 10 13 9 27 -3 38 1 31 14 -6 9 -5 9 7 0 11 -9 19 -9 26 -2 8 8 19 6
39 -7 27 -19 28 -19 22 4 -5 16 -1 25 14 33 16 9 20 7 25 -10 3 -12 13 -21 22
-22 22 -1 -26 -19 -64 -24 -16 -2 -31 -9 -33 -15 -6 -18 -146 -94 -169 -92
-14 1 -23 -4 -23 -12 0 -8 -10 -18 -22 -22 -13 -3 -30 -12 -38 -19 -8 -7 -40
-24 -70 -40 -30 -15 -64 -32 -74 -37 -35 -19 -73 -26 -87 -17 -11 7 -10 9 3 9
21 0 80 35 72 42 -3 3 -31 0 -62 -8 -68 -16 -72 -16 -72 -6 0 4 11 12 25 19
18 8 25 8 25 0 0 -7 3 -7 9 -2 16 17 0 62 -26 74 -13 6 -29 9 -34 6 -5 -4 -9
-2 -9 4 0 5 -10 11 -22 13 -18 2 -24 11 -26 35 -2 24 -9 32 -30 38 -15 3 -34
8 -43 11 -11 3 -18 -3 -22 -16 -3 -11 -10 -20 -16 -20 -20 0 -12 21 19 50 17
15 30 31 30 35 0 16 65 70 80 67 10 -2 21 5 24 15 12 29 27 -5 25 -57z m626
59 c12 -18 -3 -22 -20 -5 -14 14 -14 16 -1 16 8 0 18 -5 21 -11z m3085 -4 c0
-16 -27 -32 -37 -21 -7 7 16 36 28 36 5 0 9 -7 9 -15z m-3176 -30 c-4 -8 -1
-15 5 -15 6 0 11 -5 11 -11 0 -8 -5 -8 -15 1 -8 7 -15 9 -15 4 0 -11 -20 18
-20 29 0 4 9 7 20 7 13 0 18 -5 14 -15z m261 -6 c-4 -5 1 -9 9 -9 9 0 16 -4
16 -10 0 -5 11 -10 25 -10 16 0 25 -6 25 -16 0 -13 -3 -14 -15 -4 -8 7 -21 10
-29 7 -8 -3 -20 1 -26 9 -7 8 -19 14 -26 14 -22 0 -16 26 6 27 11 1 18 -2 15
-8z m-405 -3 c0 -2 -7 -7 -16 -10 -8 -3 -12 -2 -9 4 6 10 25 14 25 6z m265 -7
c11 -17 -1 -21 -15 -4 -8 9 -8 15 -2 15 6 0 14 -5 17 -11z m75 -14 c11 -13 8
-15 -14 -15 -25 0 -33 10 -19 23 10 11 19 8 33 -8z m3770 -5 c0 -5 -4 -10 -10
-10 -5 0 -10 5 -10 10 0 6 5 10 10 10 6 0 10 -4 10 -10z m145 -20 c17 -8 34
-14 40 -14 5 -1 11 -9 13 -18 3 -13 -3 -18 -20 -18 -23 0 -92 39 -73 41 6 1
-3 5 -20 8 -16 4 -36 3 -42 -2 -16 -12 -17 5 -2 20 11 11 53 4 104 -17z
m-8040 -3 c40 -23 40 -24 37 -76 -2 -30 -10 -67 -18 -83 -16 -32 -45 -49 -52
-30 -2 7 -10 12 -17 12 -7 0 -32 17 -54 38 -50 46 -63 92 -35 123 37 42 84 47
139 16z m1180 -11 c15 -22 14 -27 -6 -65 -11 -23 -35 -51 -53 -62 -42 -30
-116 -110 -116 -129 -1 -23 -21 -45 -60 -65 -19 -10 -37 -21 -40 -24 -3 -4
-16 -15 -30 -24 -55 -38 -98 -9 -111 73 -10 61 -3 83 22 75 11 -4 21 1 28 13
16 31 61 54 105 56 78 4 110 22 134 74 26 58 66 102 92 102 11 0 27 -11 35
-24z m3135 14 c12 -8 11 -10 -7 -10 -13 0 -23 5 -23 10 0 13 11 13 30 0z
m-565 -10 c-3 -5 -10 -10 -16 -10 -5 0 -9 5 -9 10 0 6 7 10 16 10 8 0 12 -4 9
-10z m3455 -2 c8 0 20 -5 27 -10 7 -5 16 -7 21 -4 10 6 65 -42 81 -72 6 -11
11 -29 11 -39 -1 -10 -11 2 -25 28 -27 52 -65 73 -154 85 -29 4 -48 11 -45 16
4 6 20 7 38 4 17 -4 38 -7 46 -8z m690 -13 c-7 -9 -15 -13 -19 -10 -3 3 1 10
9 15 21 14 24 12 10 -5z m-4285 -51 l-40 -35 -18 22 c-9 12 -15 24 -12 28 3 3
10 -1 14 -8 7 -10 13 -11 30 -2 11 7 21 16 21 21 0 6 10 10 23 10 20 -1 18 -4
-18 -36z m2314 -51 c2 -2 0 -12 -5 -24 -9 -20 -10 -20 -34 8 -21 24 -22 25 -2
9 38 -33 24 -3 -15 32 l-38 33 45 -28 c25 -15 47 -28 49 -30z m-2749 37 c0 -5
-5 -10 -11 -10 -5 0 -7 5 -4 10 3 6 8 10 11 10 2 0 4 -4 4 -10z m-51 -41 c-8
-5 -22 -6 -31 -3 -10 3 -18 0 -18 -6 0 -6 -8 -14 -17 -17 -10 -4 -29 -15 -42
-24 -17 -14 -28 -16 -42 -9 -18 10 -42 2 -79 -27 -27 -21 -109 -52 -115 -43
-6 9 80 60 102 60 12 0 60 26 73 40 8 8 73 32 103 37 15 3 30 9 33 14 3 5 14
4 26 -2 17 -9 18 -13 7 -20z m4861 -53 c0 -5 -10 0 -23 12 -13 12 -29 22 -35
22 -7 0 -12 7 -12 15 0 12 9 9 35 -12 19 -15 35 -32 35 -37z m-1999 -9 c10
-18 6 -17 -20 7 -36 34 -39 41 -11 26 11 -6 25 -20 31 -33z m-2601 23 c0 -5
-4 -10 -10 -10 -5 0 -10 5 -10 10 0 6 5 10 10 10 6 0 10 -4 10 -10z m3450 0
c0 -12 -77 -73 -96 -76 -9 -2 -27 -12 -39 -24 -13 -12 -29 -20 -35 -18 -11 3
15 28 100 93 45 35 70 44 70 25z m-5457 -13 c-1 -4 4 -28 12 -54 13 -43 13
-49 -3 -66 -28 -31 -65 -47 -85 -36 -23 13 -22 55 4 117 18 44 25 50 48 49 14
-2 25 -6 24 -10z m9479 -61 c18 -8 46 -17 61 -21 15 -3 25 -10 22 -15 -3 -5
-1 -11 5 -15 12 -8 13 -55 1 -55 -10 0 -9 -25 1 -35 3 -4 4 -14 1 -24 -8 -31
-49 -19 -81 24 -16 22 -41 51 -56 64 -29 27 -32 42 -14 71 15 24 18 24 60 6z
m-6506 -84 c-6 -6 -36 29 -36 43 0 7 3 21 7 31 5 13 10 6 19 -27 7 -24 12 -45
10 -47z m1704 68 c0 -5 -4 -10 -10 -10 -5 0 -10 5 -10 10 0 6 5 10 10 10 6 0
10 -4 10 -10z m595 1 c-12 -11 -31 -14 -65 -11 -19 2 -15 5 15 10 61 11 60 11
50 1z m1375 -1 c0 -5 -7 -10 -15 -10 -8 0 -15 5 -15 10 0 6 7 10 15 10 8 0 15
-4 15 -10z m135 -39 c56 -23 91 -30 175 -36 58 -3 114 -5 125 -5 73 5 131 -1
144 -14 13 -14 12 -16 -5 -22 -10 -4 -60 -24 -111 -45 -96 -41 -157 -53 -119
-24 19 14 19 15 -7 15 -36 0 -34 10 9 39 30 21 33 26 19 34 -9 5 -50 10 -91
11 -41 0 -74 4 -74 9 0 4 -6 7 -14 7 -7 0 -37 7 -65 17 -41 13 -56 14 -77 4
-32 -14 -39 -9 -24 18 14 28 32 27 115 -8z m-4755 -1 c0 -5 -9 -10 -19 -10
-11 0 -23 5 -26 10 -4 6 5 10 19 10 14 0 26 -4 26 -10z m-2890 -20 c0 -5 -4
-10 -10 -10 -5 0 -10 5 -10 10 0 6 5 10 10 10 6 0 10 -4 10 -10z m3800 0 c0
-5 -2 -10 -4 -10 -3 0 -8 5 -11 10 -3 6 -1 10 4 10 6 0 11 -4 11 -10z m6975
-30 c9 -15 38 -12 29 3 -4 6 4 1 18 -13 49 -49 30 -69 -90 -95 -71 -14 -92 -7
-92 33 0 18 36 42 65 42 7 0 17 9 20 20 7 21 39 27 50 10z m-6989 -68 c-9 -8
-26 10 -26 26 1 15 2 15 15 -2 8 -11 13 -21 11 -24z m3844 22 c0 -9 -7 -14
-17 -12 -25 5 -28 28 -4 28 12 0 21 -6 21 -16z m90 -24 c0 -5 -10 -10 -22 -10
-19 0 -20 2 -8 10 19 13 30 13 30 0z m-550 -40 c0 -5 -4 -10 -10 -10 -5 0 -10
5 -10 10 0 6 5 10 10 10 6 0 10 -4 10 -10z m80 -10 c0 -12 -28 -25 -36 -17 -9
9 6 27 22 27 8 0 14 -5 14 -10z m-6451 -24 c12 -13 24 -40 28 -60 6 -39 6 -38
72 -41 53 -1 70 -20 65 -76 -6 -67 -71 -107 -121 -74 -15 10 -42 18 -60 17
-18 -1 -35 3 -38 8 -8 13 -76 13 -131 -1 -37 -10 -48 -9 -62 3 -9 8 -25 18
-35 21 -53 19 -47 161 7 172 11 2 48 6 82 8 33 3 80 14 105 26 56 26 61 26 88
-3z m6491 -10 c0 -3 -4 -8 -10 -11 -5 -3 -10 -1 -10 4 0 6 5 11 10 11 6 0 10
-2 10 -4z m-6282 -37 c4 -24 -36 -32 -48 -9 -5 9 -6 20 -3 24 12 12 48 1 51
-15z m3236 -2 c-4 -13 -2 -17 5 -13 6 4 11 1 11 -8 0 -9 -6 -13 -14 -10 -8 3
-17 1 -21 -5 -14 -23 -35 -11 -35 20 0 16 4 28 9 24 5 -3 12 -2 15 3 3 5 12 9
21 9 11 0 13 -6 9 -20z m2954 -6 c-2 -8 -15 -23 -30 -34 -26 -19 -26 -19 -48
1 -21 19 -21 20 -2 33 26 19 83 19 80 0z m92 9 c0 -5 -2 -10 -4 -10 -3 0 -8 5
-11 10 -3 6 -1 10 4 10 6 0 11 -4 11 -10z m-5460 -7 c0 -5 -35 -26 -77 -48
-43 -22 -98 -52 -123 -66 -25 -14 -68 -29 -96 -33 -46 -6 -48 -5 -29 9 43 34
222 129 255 136 50 10 70 10 70 2z m390 -12 c0 -5 -7 -11 -15 -15 -15 -5 -20
5 -8 17 9 10 23 9 23 -2z m-70 -11 c0 -5 -7 -10 -16 -10 -8 0 -12 5 -9 10 3 6
10 10 16 10 5 0 9 -4 9 -10z m500 -4 c0 -14 -73 -33 -110 -29 -8 1 -39 -5 -70
-13 -30 -8 -80 -17 -110 -20 -30 -2 -109 -11 -175 -19 -66 -8 -121 -15 -122
-15 -2 0 -3 -5 -3 -11 0 -15 205 -2 405 25 81 12 165 15 170 6 10 -17 -57 -31
-204 -45 -36 -3 -68 -8 -71 -10 -3 -2 -62 -9 -130 -15 -69 -6 -141 -13 -160
-16 -46 -6 -208 -42 -240 -53 -14 -5 -72 -24 -130 -41 -58 -18 -121 -41 -140
-51 -19 -11 -38 -19 -43 -19 -5 0 -34 -12 -65 -27 -51 -24 -54 -28 -30 -31 14
-2 57 10 95 26 37 16 91 31 119 35 28 3 81 15 118 27 68 22 102 21 93 -4 -6
-15 11 -36 28 -36 7 0 17 11 23 25 15 33 22 32 51 -11 14 -20 30 -33 38 -30 7
3 13 1 13 -4 0 -5 9 -14 19 -20 26 -13 71 6 71 31 0 10 4 20 10 24 5 3 7 11 5
18 -3 7 -1 18 4 25 7 12 12 12 32 0 34 -18 40 -29 33 -59 -4 -21 -1 -28 15
-32 12 -3 21 -10 21 -16 0 -14 -37 -15 -45 -1 -4 6 -12 4 -22 -5 -8 -9 -23
-13 -33 -10 -9 3 -30 -1 -46 -10 -19 -10 -42 -13 -69 -9 -29 4 -62 -2 -115
-19 -41 -14 -99 -28 -129 -32 -29 -3 -60 -13 -69 -21 -8 -8 -20 -13 -27 -10
-14 5 -75 -14 -96 -30 -22 -16 -108 -35 -133 -28 -14 3 -27 -1 -35 -10 -8 -9
-20 -16 -27 -16 -8 0 -14 -3 -14 -8 0 -4 -22 -17 -48 -29 -26 -12 -58 -31 -71
-42 -12 -11 -28 -18 -35 -15 -7 3 -20 -12 -30 -35 -38 -83 -156 -161 -169
-111 -7 26 -53 48 -69 32 -8 -8 -6 -15 6 -27 18 -18 21 -35 6 -35 -5 0 -10 4
-10 10 0 5 -12 20 -27 34 l-27 25 22 24 c12 13 22 27 22 32 0 5 8 17 18 28 17
20 17 20 -15 2 -17 -10 -34 -26 -36 -35 -6 -22 -65 -52 -88 -45 -21 7 -37 -31
-20 -48 6 -6 11 -19 11 -29 0 -10 6 -18 14 -18 7 0 20 -7 27 -16 11 -14 7 -21
-29 -51 -24 -19 -49 -48 -58 -64 -14 -28 -13 -32 8 -58 13 -16 33 -34 46 -40
22 -11 31 -41 12 -41 -6 0 -22 -11 -36 -25 -14 -14 -36 -28 -49 -31 -16 -4
-26 -15 -30 -36 -6 -25 -2 -34 32 -63 21 -19 41 -34 46 -35 15 0 6 -31 -10
-36 -40 -13 -81 -34 -92 -48 -14 -16 -4 -46 15 -46 16 0 19 -26 4 -35 -6 -3
-17 0 -25 8 -8 9 -19 17 -25 19 -11 3 -16 233 -7 313 3 22 8 76 12 120 4 44
11 88 17 98 5 9 6 22 3 27 -3 6 3 27 14 48 11 20 25 54 31 75 11 35 49 67 80
67 14 0 70 54 70 67 0 16 58 53 82 53 23 1 108 69 108 87 0 27 101 116 175
154 44 22 100 56 124 75 24 19 50 34 57 34 7 0 25 10 41 23 38 31 109 61 127
54 9 -3 18 -2 21 3 4 6 16 10 29 10 15 0 27 9 34 25 13 28 37 33 50 9 8 -14
14 -13 65 4 31 11 68 33 82 49 25 26 26 27 20 5 -6 -21 -4 -23 22 -19 15 2 35
6 43 10 44 16 115 28 200 33 52 3 100 10 105 14 6 4 42 10 80 12 39 2 75 7 80
10 6 4 41 9 80 12 38 4 71 9 74 11 2 3 24 5 48 5 31 0 43 -4 43 -14z m4424 -1
c-7 -19 -39 -37 -48 -28 -11 11 -6 23 9 23 8 0 15 5 15 10 0 6 7 10 15 10 9 0
12 -6 9 -15z m-5059 -34 c-4 -15 -15 -21 -34 -21 -15 0 -32 -5 -39 -12 -8 -8
-15 -8 -27 2 -14 12 -13 15 12 31 16 11 37 16 49 13 12 -3 25 0 29 6 11 17 18
4 10 -19z m5755 3 c0 -8 -4 -14 -9 -14 -11 0 -22 26 -14 34 9 9 23 -3 23 -20z
m270 -14 c8 -4 44 -8 78 -9 101 -3 284 -37 327 -60 22 -11 57 -21 77 -21 32 0
39 -4 44 -25 4 -18 20 -32 51 -46 42 -19 63 -43 49 -56 -3 -4 -25 4 -47 17
-59 32 -221 62 -409 74 -72 5 -309 39 -360 53 -52 13 61 24 120 11 60 -13 73
-14 240 -23 63 -3 133 -10 155 -15 42 -10 51 -8 40 9 -3 6 -21 11 -40 11 -19
0 -45 4 -60 10 -14 5 -64 12 -112 15 -47 3 -90 8 -95 11 -5 3 -34 8 -64 10
-82 7 -120 25 -98 46 6 7 83 -2 104 -12z m-1030 1 c0 -6 -4 -13 -10 -16 -5 -3
-10 1 -10 9 0 9 5 16 10 16 6 0 10 -4 10 -9z m-2600 -41 c-8 -5 -19 -10 -25
-10 -5 0 -3 5 5 10 8 5 20 10 25 10 6 0 3 -5 -5 -10z m3405 -11 c11 -17 -1
-21 -34 -14 -17 4 -29 11 -25 16 7 12 51 11 59 -2z m-6060 -9 c-3 -5 -11 -10
-16 -10 -6 0 -7 5 -4 10 3 6 11 10 16 10 6 0 7 -4 4 -10z m2596 -6 c-21 -15
-24 -15 -39 0 -15 15 -13 16 23 16 39 0 39 0 16 -16z m-3949 -85 c43 -53 47
-78 18 -124 -29 -47 -65 -69 -91 -55 -35 19 -42 56 -19 107 22 50 26 108 8
119 -7 5 -5 11 8 21 16 11 19 11 28 -4 5 -10 26 -39 48 -64z m4113 71 c-3 -5
2 -10 12 -10 10 0 27 -7 37 -15 19 -14 19 -16 -10 -45 -29 -30 -86 -41 -99
-20 -3 6 0 10 8 10 14 0 28 21 32 45 0 6 7 9 15 7 10 -2 11 0 2 11 -7 8 -9 17
-5 20 10 10 15 8 8 -3z m2445 -17 c0 -3 -7 -14 -16 -24 -15 -16 -54 -16 -54 1
0 5 9 6 20 3 14 -4 20 0 20 11 0 9 7 16 15 16 8 0 15 -3 15 -7z m-5500 -12 c0
-10 -25 -21 -48 -21 -12 1 -10 5 8 15 29 17 40 18 40 6z m5451 -64 c-6 -6 -15
-4 -25 6 -26 25 -19 39 10 21 16 -11 22 -20 15 -27z m-5656 13 c9 -14 -21 -59
-43 -67 -9 -4 -38 -26 -64 -50 -26 -23 -52 -43 -59 -43 -6 0 -24 14 -40 31
-21 23 -28 38 -23 53 11 35 35 55 73 61 20 4 45 10 56 15 28 12 93 12 100 0z
m1080 -10 c3 -5 1 -10 -4 -10 -6 0 -11 5 -11 10 0 6 2 10 4 10 3 0 8 -4 11
-10z m274 -6 c8 -7 -30 -16 -44 -10 -27 10 -17 27 13 20 15 -4 29 -8 31 -10z
m-481 -2 c23 -3 7 -27 -19 -29 -69 -8 -81 -11 -100 -31 -23 -25 -37 -28 -45
-8 -8 21 14 56 36 56 10 0 21 4 24 8 4 8 58 9 104 4z m92 -14 c0 -5 -6 -8 -14
-5 -10 4 -16 -2 -19 -16 -3 -21 -4 -21 -12 -3 -6 14 -3 23 10 32 19 14 35 10
35 -8z m310 2 c0 -5 -5 -10 -11 -10 -5 0 -7 5 -4 10 3 6 8 10 11 10 2 0 4 -4
4 -10z m4300 1 c0 -5 -7 -11 -15 -15 -20 -7 -19 -18 5 -46 29 -33 25 -38 -7
-9 -16 13 -30 25 -32 26 -2 2 1 14 7 28 11 24 42 36 42 16z m55 -1 c3 -5 3
-15 -1 -21 -6 -11 -23 6 -24 24 0 10 18 9 25 -3z m-4425 -21 c0 -5 -4 -9 -10
-9 -5 0 -10 7 -10 16 0 8 5 12 10 9 6 -3 10 -10 10 -16z m5665 1 c0 -16 -66
-33 -79 -20 -5 5 -6 15 -3 23 7 19 82 17 82 -3z m277 -35 c-3 -20 0 -25 16
-25 12 0 24 -4 27 -10 9 -15 25 -12 25 5 0 8 5 15 10 15 6 0 10 12 10 26 0 21
3 25 18 18 9 -4 28 -8 42 -9 45 -3 95 -17 118 -32 13 -8 30 -12 37 -9 26 9 69
-22 164 -121 86 -89 131 -146 131 -165 0 -13 -34 4 -76 38 -54 43 -149 90
-198 97 -21 4 -48 16 -60 28 -16 18 -17 21 -3 16 9 -3 19 -2 22 3 4 6 -3 10
-14 10 -10 0 -21 4 -23 9 -1 4 -13 12 -25 15 -27 9 -31 -9 -6 -23 23 -12 14
-20 -31 -28 -39 -6 -76 16 -76 44 0 14 -28 49 -33 42 -2 -2 -9 -12 -16 -21
-11 -14 -11 -21 -1 -32 10 -13 3 -15 -48 -14 -55 1 -61 3 -86 34 l-27 34 30 0
c17 0 34 -7 39 -16 8 -14 10 -13 15 5 3 14 0 21 -9 21 -18 0 -54 36 -54 54 0
8 7 21 15 30 13 13 19 13 44 0 22 -11 27 -19 23 -39z m-6029 30 c4 -8 2 -17
-3 -20 -6 -4 -10 3 -10 14 0 25 6 27 13 6z m2127 -11 c0 -2 -9 0 -20 6 -11 6
-20 13 -20 16 0 2 9 0 20 -6 11 -6 20 -13 20 -16z m3770 -4 c0 -11 -7 -20 -15
-20 -15 0 -21 21 -8 33 12 13 23 7 23 -13z m-8800 -5 c16 -20 5 -63 -23 -86
-28 -23 -27 -23 -59 6 -18 16 -25 31 -21 45 11 43 78 66 103 35z m7390 1 c0
-8 -4 -18 -10 -21 -5 -3 -10 3 -10 14 0 12 5 21 10 21 6 0 10 -6 10 -14z
m-4790 -8 c0 -7 -5 -20 -10 -28 -7 -12 -12 -12 -21 -3 -9 9 -9 16 1 28 15 18
30 20 30 3z m505 -18 c-3 -10 -1 -21 5 -25 6 -3 8 -11 5 -16 -11 -16 -25 -9
-31 16 -8 31 -21 31 -59 0 l-30 -25 25 0 c20 0 22 -2 10 -10 -8 -5 -25 -7 -38
-3 -16 4 -22 1 -20 -8 2 -7 -5 -14 -14 -17 -17 -3 -16 5 8 69 7 20 63 40 92
33 13 -4 22 -2 22 5 0 5 7 8 15 5 10 -4 13 -13 10 -24z m7743 15 c3 -14 -31
-12 -35 1 -2 6 4 10 14 9 10 0 19 -5 21 -10z m-2138 1 c0 -3 -4 -8 -10 -11 -5
-3 -10 -1 -10 4 0 6 5 11 10 11 6 0 10 -2 10 -4z m-5810 -16 c11 -6 12 -12 4
-20 -13 -13 -44 -2 -44 16 0 16 18 18 40 4z m8006 -3 c4 -4 0 -7 -9 -7 -9 0
-18 4 -21 9 -7 10 20 9 30 -2z m-8094 -19 c-9 -9 -15 -9 -24 0 -9 9 -7 12 12
12 19 0 21 -3 12 -12z m4513 2 c14 -2 -26 -18 -47 -19 -10 -1 -18 5 -18 13 0
14 18 15 65 6z m-2115 -10 c18 -12 2 -12 -25 0 -13 6 -15 9 -5 9 8 0 22 -4 30
-9z m3410 -5 c0 -8 -4 -15 -10 -15 -5 0 -10 7 -10 15 0 8 5 15 10 15 6 0 10
-7 10 -15z m-5400 -15 c0 -5 -4 -10 -10 -10 -5 0 -10 5 -10 10 0 6 5 10 10 10
6 0 10 -4 10 -10z m4122 -22 c-9 -9 -12 -7 -12 12 0 19 3 21 12 12 9 -9 9 -15
0 -24z m-2027 -18 c21 -16 33 -30 27 -30 -6 0 -14 5 -18 11 -3 6 -20 19 -38
30 -17 10 -26 19 -20 19 6 0 28 -13 49 -30z m-2494 7 c-1 -12 -15 -9 -19 4 -3
6 1 10 8 8 6 -3 11 -8 11 -12z m-1516 -108 c0 -43 -13 -69 -34 -69 -7 0 -9 11
-7 26 3 14 0 34 -6 44 -16 25 -4 47 24 45 20 -1 23 -7 23 -46z m4096 32 c13
-11 22 -22 19 -24 -3 -3 -18 6 -33 19 -33 28 -20 33 14 5z m-2382 -41 c10 -5
24 -24 32 -42 7 -18 19 -39 27 -48 32 -37 72 -94 72 -103 0 -6 20 -36 43 -66
72 -91 79 -117 32 -105 -18 4 -24 0 -29 -20 -7 -30 -36 -35 -36 -7 0 10 -11
26 -25 35 -15 10 -25 26 -25 40 0 13 -6 29 -14 35 -14 12 -71 149 -78 186 -2
11 -11 20 -21 19 -9 0 -38 -1 -63 -2 l-46 -2 7 -32 c4 -18 25 -80 46 -137 37
-100 48 -151 31 -151 -4 0 -13 9 -20 20 -9 14 -23 20 -50 20 l-37 -1 26 -22
c21 -17 27 -34 32 -79 6 -59 0 -70 -23 -43 -10 12 -11 24 -2 50 10 34 9 35
-15 35 -14 0 -31 7 -38 16 -11 15 -14 15 -37 0 -26 -17 -58 -13 -58 8 -1 6
-10 0 -21 -13 -18 -22 -18 -26 -4 -33 8 -5 24 -6 35 -3 17 5 21 1 26 -24 5
-24 12 -31 30 -31 15 0 24 -6 24 -15 0 -18 -46 -38 -63 -28 -7 4 -32 10 -57
13 -38 4 -46 9 -48 29 -2 13 -12 33 -22 43 -18 19 -17 40 2 64 5 8 1 13 -12
17 -11 3 -20 9 -20 14 0 8 88 154 107 178 5 6 37 48 72 95 l64 85 66 6 c36 3
67 6 69 7 2 1 11 -2 21 -8z m2432 -17 c13 -16 12 -17 -3 -4 -10 7 -18 15 -18
17 0 8 8 3 21 -13z m3557 -14 c60 -27 142 -96 260 -218 79 -82 92 -100 92
-129 0 -26 3 -33 15 -28 8 3 15 1 15 -5 0 -6 5 -7 10 -4 13 8 13 -8 -1 -22 -8
-8 -4 -15 12 -27 13 -9 29 -16 36 -16 7 0 13 -4 13 -10 0 -5 9 -10 20 -10 14
0 22 11 31 43 6 23 19 51 28 62 10 11 21 29 25 39 6 18 7 18 30 -3 24 -23 48
-104 51 -179 2 -37 -1 -45 -27 -63 -29 -21 -58 -20 -58 2 0 6 9 13 20 16 29 8
7 43 -27 43 -15 0 -35 8 -45 17 -16 15 -21 15 -28 3 -7 -12 -12 -12 -28 3 -12
11 -35 17 -64 17 -54 0 -90 28 -63 50 8 7 15 18 15 26 0 14 -35 28 -49 20 -5
-4 -18 5 -29 19 -14 18 -29 25 -54 25 -19 0 -39 5 -46 12 -9 9 -13 7 -18 -5
-8 -23 -24 -11 -24 17 0 13 -7 29 -15 36 -8 7 -18 28 -21 49 -6 31 -22 70 -53
131 -5 9 -26 16 -56 18 l-48 3 6 -43 c3 -24 15 -72 27 -107 26 -82 26 -107 -1
-114 -22 -6 -63 6 -72 21 -3 4 -9 60 -12 123 -3 63 -8 128 -10 144 -6 40 4 53
45 58 19 2 39 5 43 5 4 1 29 -8 55 -19z m-7713 -50 c7 -10 -21 -38 -37 -39
-12 0 -9 25 4 38 15 15 25 15 33 1z m6655 -89 c0 -5 -5 -10 -11 -10 -5 0 -7 5
-4 10 3 6 8 10 11 10 2 0 4 -4 4 -10z m-5730 -137 c19 -9 47 -24 62 -34 14
-11 32 -19 40 -19 7 0 26 -12 42 -26 26 -23 27 -26 12 -43 -29 -32 -10 -67 20
-36 23 22 39 13 39 -21 0 -26 3 -29 29 -26 25 3 28 1 23 -17 -5 -21 7 -29 18
-11 3 6 15 10 26 10 21 0 25 10 9 26 -19 19 14 38 40 24 20 -11 21 -13 5 -30
-15 -16 -14 -18 5 -23 25 -6 26 -29 1 -51 -17 -15 -20 -15 -34 -1 -9 8 -25 15
-36 15 -22 0 -28 -14 -11 -25 5 -3 6 -13 3 -21 -4 -12 -14 -14 -39 -10 -18 4
-35 2 -39 -3 -3 -6 -19 -8 -34 -5 -16 4 -32 1 -35 -5 -10 -16 -51 -14 -66 4
-18 22 -8 50 18 48 27 -3 28 8 3 31 -13 12 -39 19 -77 20 -53 3 -57 5 -70 34
-7 18 -18 32 -24 32 -5 0 -10 11 -10 24 0 13 -7 29 -15 36 -8 7 -15 21 -15 32
0 10 -8 30 -17 45 -16 24 -16 26 1 38 21 16 75 10 126 -12z m-1080 -19 c0 -36
-90 -157 -106 -142 -7 8 20 61 59 116 32 44 47 53 47 26z m2148 -86 c2 -12 -2
-15 -17 -11 -12 3 -28 0 -36 -7 -15 -12 -35 -6 -35 11 0 13 40 29 65 26 11 -1
21 -10 23 -19z m5952 -51 c0 -5 -4 -5 -10 -2 -5 3 -10 14 -10 23 0 15 2 15 10
2 5 -8 10 -19 10 -23z m-6740 -17 c0 -5 -5 -10 -11 -10 -5 0 -7 5 -4 10 3 6 8
10 11 10 2 0 4 -4 4 -10z m3171 0 c19 -11 27 -40 11 -40 -5 0 -19 11 -32 25
-24 26 -14 33 21 15z m-2346 -10 c3 -5 2 -10 -4 -10 -5 0 -13 5 -16 10 -3 6
-2 10 4 10 5 0 13 -4 16 -10z m6055 -40 c0 -5 -4 -10 -10 -10 -5 0 -10 5 -10
10 0 6 5 10 10 10 6 0 10 -4 10 -10z m1735 -41 c12 -19 -5 -23 -22 -6 -16 16
-16 17 -1 17 9 0 20 -5 23 -11z m-10025 -59 c-12 -30 -41 -47 -60 -35 -16 10
-12 20 28 59 29 30 38 34 40 21 2 -9 -2 -30 -8 -45z m8404 45 c-4 -8 -10 -15
-15 -15 -4 0 -6 7 -3 15 4 8 10 15 15 15 4 0 6 -7 3 -15z m-9213 -51 c18 -20
43 -41 54 -47 24 -12 175 -20 175 -9 0 5 17 18 38 29 35 18 41 19 68 5 16 -8
45 -29 64 -47 33 -31 75 -57 113 -71 29 -11 19 -50 -28 -105 -38 -44 -45 -60
-45 -95 0 -24 6 -47 15 -54 11 -9 12 -17 4 -31 -5 -10 -6 -19 -2 -20 24 -2
-39 -18 -74 -18 -33 -1 -46 -7 -65 -30 -50 -59 -108 -76 -108 -31 0 10 -8 33
-17 52 -9 18 -19 40 -23 48 -4 8 -13 25 -21 37 -10 16 -11 29 -3 50 8 23 19
30 71 44 117 30 143 72 85 137 -34 37 -52 40 -98 11 -19 -11 -51 -20 -76 -21
-24 0 -59 -5 -78 -11 -39 -12 -90 -11 -103 2 -5 5 -11 28 -13 52 -3 24 -9 58
-15 75 -12 38 5 84 31 84 9 0 32 -16 51 -36z m2559 6 c0 -5 -2 -10 -4 -10 -3
0 -8 5 -11 10 -3 6 -1 10 4 10 6 0 11 -4 11 -10z m6770 -25 c0 -21 -22 -35
-40 -25 -33 18 -30 36 6 36 19 0 34 -5 34 -11z m-97 -19 c15 -12 16 -18 7 -35
-21 -40 -57 -20 -46 25 7 27 14 29 39 10z m-6645 -25 c3 -8 -1 -12 -9 -9 -7 2
-15 10 -17 17 -3 8 1 12 9 9 7 -2 15 -10 17 -17z m-318 -1 c0 -5 -4 -10 -10
-10 -5 0 -10 5 -10 10 0 6 5 10 10 10 6 0 10 -4 10 -10z m90 -5 c0 -8 -4 -15
-10 -15 -5 0 -10 7 -10 15 0 8 5 15 10 15 6 0 10 -7 10 -15z m-1570 -4 c0 -6
-4 -13 -10 -16 -5 -3 -10 1 -10 9 0 9 5 16 10 16 6 0 10 -4 10 -9z m-134 -97
c-3 -8 -10 -12 -16 -9 -7 4 -6 14 2 28 12 24 24 8 14 -19z m-46 -78 c0 -3 -4
-8 -10 -11 -5 -3 -10 -1 -10 4 0 6 5 11 10 11 6 0 10 -2 10 -4z m398 -31 c11
-9 -12 -45 -28 -45 -20 0 -36 33 -25 50 6 9 41 5 53 -5z m-1125 -33 c27 -29
32 -78 12 -108 -16 -25 -21 -26 -73 -21 -50 5 -59 3 -100 -25 -58 -40 -95 -47
-155 -32 -27 7 -55 10 -63 7 -29 -11 -73 18 -83 54 -11 40 -5 61 23 84 17 14
44 17 159 15 127 -1 141 1 175 21 45 28 83 29 105 5z m1039 -89 c22 -20 23
-37 2 -57 -24 -24 -29 -20 -31 29 -2 50 2 53 29 28z m-162 -45 c0 -16 -3 -19
-11 -11 -6 6 -8 16 -5 22 11 17 16 13 16 -11z m9980 -28 c35 -18 90 -76 90
-94 0 -5 6 -22 14 -39 19 -46 36 -122 36 -163 0 -57 -41 -93 -123 -107 -64
-11 -67 -10 -92 13 -22 20 -25 32 -25 87 0 49 -7 78 -29 127 -16 35 -32 82
-36 104 -5 33 -2 44 21 71 25 30 31 32 67 27 21 -4 56 -15 77 -26z m-11147
-83 c22 -15 27 -26 27 -57 0 -34 -6 -44 -51 -83 -64 -56 -81 -61 -121 -33 -31
21 -33 26 -32 75 2 58 19 85 69 107 38 17 73 14 108 -9z m1357 -12 c0 -15 16
-19 54 -15 29 3 9 -18 -25 -25 -36 -8 -35 -8 -44 28 -5 17 -3 27 4 27 6 0 11
-7 11 -15z m-324 -49 c5 -12 -25 -68 -83 -157 -26 -39 -30 -69 -9 -69 7 0 19
-7 26 -15 7 -8 16 -12 21 -9 10 6 12 -36 3 -60 -3 -9 -14 -16 -24 -16 -11 0
-22 -4 -25 -10 -11 -18 -25 -11 -36 17 l-10 28 -19 -25 c-10 -13 -24 -42 -31
-65 -7 -22 -21 -51 -31 -64 -10 -13 -18 -31 -18 -40 0 -9 -7 -25 -15 -35 -8
-11 -15 -27 -15 -37 0 -9 -9 -27 -20 -40 l-19 -24 -1 24 c0 14 4 38 10 55 5
17 12 43 15 59 3 15 11 27 19 27 7 0 19 20 26 45 11 40 11 48 -4 63 -21 25
-20 39 4 52 11 6 18 15 15 19 -5 10 16 29 49 46 20 10 21 17 18 100 -4 78 -1
92 15 107 35 32 130 48 139 24z m404 -36 c0 -5 -4 -10 -10 -10 -5 0 -10 5 -10
10 0 6 5 10 10 10 6 0 10 -4 10 -10z m8646 -7 c14 -19 19 -63 7 -63 -5 0 -16
7 -27 15 -13 10 -17 21 -12 39 8 31 14 32 32 9z m-1909 -109 c-3 -3 -12 -4
-19 -1 -8 3 -5 6 6 6 11 1 17 -2 13 -5z m-6737 -14 c0 -5 9 -10 20 -10 11 0
20 -6 20 -14 0 -22 -16 -28 -30 -11 -9 11 -16 12 -25 5 -18 -15 -30 6 -15 25
14 17 30 20 30 5z m4100 -45 c16 -20 6 -45 -19 -45 -20 0 -37 32 -26 50 9 15
31 12 45 -5z m-375 -16 c4 -5 0 -18 -8 -27 -8 -9 -17 -26 -19 -37 -4 -24 -38
-34 -38 -10 0 8 7 18 15 21 9 4 15 19 15 35 0 29 22 40 35 18z m69 3 c3 -5
-10 -32 -28 -61 -36 -55 -60 -55 -27 0 11 18 18 36 15 41 -3 4 -2 13 1 18 8
12 32 13 39 2z m-3724 -10 c0 -27 -72 -83 -87 -68 -9 9 52 76 70 76 9 0 17 -3
17 -8z m8624 -9 c15 -53 16 -139 3 -157 -20 -27 -46 -14 -45 21 0 15 -2 42 -6
60 -12 51 34 123 48 76z m-8623 -64 c-13 -11 -26 -17 -29 -14 -8 8 20 35 37
35 12 -1 11 -5 -8 -21z m69 4 c0 -20 -98 -123 -117 -123 -32 0 -19 27 38 81
68 63 79 69 79 42z m6733 -17 c14 -21 14 -26 2 -36 -11 -9 -16 -7 -25 10 -10
19 -8 50 4 50 2 0 11 -11 19 -24z m-6846 -31 c-7 -16 -37 -21 -37 -5 0 10 32
31 39 25 2 -2 1 -11 -2 -20z m6906 12 c15 -11 16 -15 4 -31 -17 -24 -37 -13
-37 20 0 27 8 30 33 11z m-496 -17 c19 -15 35 -19 58 -14 44 8 66 -17 34 -40
-20 -13 -21 -19 -11 -41 12 -27 4 -32 -27 -16 -10 6 -23 6 -31 1 -12 -7 -12
-13 0 -34 7 -14 11 -29 7 -32 -10 -10 -51 4 -77 26 -13 11 -29 18 -36 16 -7
-3 -16 3 -19 14 -3 10 -13 21 -21 24 -8 3 -12 11 -9 16 4 6 1 17 -5 25 -10 12
-9 15 8 15 11 0 25 -7 32 -15 7 -8 21 -15 31 -15 11 0 19 -7 19 -15 0 -8 6
-15 14 -15 19 0 29 17 16 25 -5 3 -10 15 -10 26 0 10 -9 24 -20 31 -11 7 -20
18 -20 25 0 20 39 15 67 -7z m201 -3 c2 -9 -4 -20 -12 -23 -21 -8 -46 13 -39
32 8 20 47 13 51 -9z m-7528 3 c0 -5 -4 -10 -10 -10 -5 0 -10 5 -10 10 0 6 5
10 10 10 6 0 10 -4 10 -10z m1156 -39 c-14 -15 -26 -32 -26 -38 0 -5 -16 -27
-36 -47 -41 -43 -39 -59 10 -76 19 -6 38 -20 41 -31 4 -11 11 -17 16 -13 6 3
27 -5 47 -19 20 -14 49 -31 65 -38 35 -16 34 -24 -3 -39 -17 -7 -30 -20 -30
-30 0 -10 -11 -25 -25 -34 -13 -9 -31 -29 -40 -45 -13 -26 -13 -32 0 -59 18
-36 55 -62 89 -62 32 0 41 -26 15 -41 -15 -8 -24 -8 -32 0 -6 6 -19 11 -28 11
-9 0 -22 7 -29 15 -8 10 -17 12 -24 6 -19 -16 -46 13 -46 48 0 24 -4 31 -19
31 -19 0 -35 25 -26 40 7 12 -26 50 -42 50 -8 0 -13 12 -13 29 0 16 -3 36 -6
44 -3 10 4 17 22 21 26 7 26 7 8 28 -19 21 -19 21 4 15 20 -5 22 -3 10 11 -27
35 -40 39 -61 17 -13 -13 -16 -13 -27 0 -10 12 -10 18 0 30 7 8 10 16 6 16 -3
1 -10 3 -16 4 -5 1 -14 3 -20 4 -5 0 -10 9 -10 19 0 10 -5 23 -11 29 -18 18 0
35 30 28 19 -4 32 -1 41 10 7 8 18 15 25 15 7 0 15 7 19 15 3 8 10 15 16 15 5
0 10 -7 10 -15 0 -8 -6 -15 -12 -15 -7 0 -18 -11 -25 -25 -9 -20 -8 -25 2 -25
7 0 15 4 17 8 2 4 18 18 36 31 17 12 32 27 32 34 0 17 52 67 62 61 5 -4 -2
-18 -16 -33z m-142 -2 c-26 -29 -54 -43 -54 -27 1 13 61 58 69 51 2 -1 -4 -12
-15 -24z m4037 6 c-6 -36 -6 -80 2 -107 6 -24 4 -28 -18 -34 -15 -4 -25 -13
-25 -24 0 -11 -4 -21 -9 -25 -9 -5 -41 -62 -41 -72 0 -1 9 -3 20 -3 14 0 26
14 41 47 25 54 45 77 60 68 18 -12 -16 -118 -44 -137 -6 -3 -11 -17 -12 -30
-2 -20 -6 -23 -36 -20 l-34 4 23 -24 c25 -28 20 -38 -19 -38 -21 0 -28 -5 -31
-22 -4 -29 -25 -34 -33 -8 -6 18 -12 20 -43 14 -20 -4 -46 -15 -57 -25 -17
-15 -27 -16 -61 -9 -22 5 -71 9 -108 8 -37 0 -71 3 -77 9 -20 20 20 34 123 45
l103 11 67 71 c61 64 66 72 51 84 -20 15 -40 16 -48 2 -3 -5 -32 -10 -63 -10
-50 0 -55 2 -42 15 9 8 33 17 55 19 134 17 128 14 179 72 62 70 54 82 -52 86
-69 3 -77 5 -77 23 0 25 34 33 135 31 69 -1 75 -3 71 -21z m109 9 c0 -18 -33
-115 -41 -119 -21 -14 -28 7 -13 36 14 28 14 32 -2 50 -16 18 -16 19 4 19 11
0 24 5 27 10 7 11 25 14 25 4z m128 -11 c2 -8 -5 -13 -17 -13 -12 0 -21 -6
-21 -14 0 -14 41 -26 88 -26 l26 0 -22 -16 c-14 -9 -36 -14 -53 -12 -25 4 -28
2 -23 -14 3 -11 0 -18 -7 -18 -7 0 -27 -11 -45 -25 -18 -14 -37 -25 -42 -25
-17 0 6 74 27 89 17 11 19 17 9 34 -9 17 -7 24 12 39 25 20 61 21 68 1z m209
11 c-3 -3 -12 -4 -19 -1 -8 3 -5 6 6 6 11 1 17 -2 13 -5z m-6172 -14 c14 -5
24 -14 21 -19 -7 -10 -56 9 -56 22 0 9 3 9 35 -3z m5242 2 c8 -5 -1 -25 -29
-67 -22 -33 -43 -62 -46 -65 -10 -8 -52 -68 -52 -75 0 -14 -57 -77 -80 -90
-14 -7 -32 -26 -40 -42 -8 -15 -31 -48 -50 -73 -20 -25 -42 -59 -49 -77 -7
-18 -28 -41 -47 -52 -19 -11 -34 -25 -34 -31 0 -13 -27 -13 -35 0 -4 6 1 23
11 38 10 15 17 35 16 45 -2 11 3 17 17 17 11 0 23 5 26 10 3 5 1 10 -4 10 -14
0 -14 77 -1 85 5 3 21 30 34 60 14 29 30 56 35 60 6 3 11 16 11 29 0 15 16 34
50 60 28 21 50 42 50 46 0 13 77 83 112 102 34 18 85 23 105 10z m2478 -29 c3
-13 2 -23 -3 -23 -11 0 -22 24 -22 48 0 21 15 5 25 -25z m-6645 15 c0 -7 -5
-20 -10 -28 -9 -13 -12 -12 -25 4 -8 10 -12 23 -9 27 8 14 44 10 44 -3z m7450
-7 c0 -23 -16 -36 -25 -21 -9 14 1 40 15 40 5 0 10 -9 10 -19z m60 -5 c0 -8
-7 -16 -15 -20 -10 -4 -15 1 -15 14 0 11 7 20 15 20 8 0 15 -6 15 -14z m-2369
-45 c5 -25 3 -37 -12 -52 -10 -10 -23 -19 -29 -19 -5 0 -10 -9 -10 -20 0 -23
-48 -96 -69 -105 -17 -7 -41 12 -41 32 0 10 9 13 30 11 16 -2 28 2 27 7 -1 6
-17 10 -36 10 -19 0 -36 6 -38 13 -3 6 1 12 9 12 20 0 40 50 27 66 -8 10 -4
15 16 20 21 5 26 11 22 30 -3 19 1 24 22 27 59 10 75 4 82 -32z m1598 10 c9
-6 10 -10 2 -16 -9 -5 -9 -11 1 -22 16 -20 38 -112 31 -130 -3 -8 -14 -18 -24
-23 -14 -8 -23 -4 -44 17 -14 15 -25 37 -25 48 0 12 -4 25 -9 31 -4 5 -11 26
-14 47 -5 30 -3 38 8 33 7 -2 19 2 25 10 14 16 29 18 49 5z m-6683 -13 c4 -6
0 -16 -9 -23 -24 -17 -21 -25 8 -25 28 0 34 -17 9 -27 -11 -4 -14 -13 -9 -30
3 -14 -1 -33 -10 -46 -8 -12 -15 -34 -15 -49 0 -42 -18 -34 -31 15 -11 38 -13
103 -6 148 7 39 47 63 63 37z m9110 -22 c8 -20 -32 -57 -51 -50 -14 6 -13 9 5
21 11 8 20 21 20 29 0 18 19 18 26 0z m-4216 -17 c0 -11 -27 -12 -34 0 -3 4
-3 11 0 14 8 8 34 -3 34 -14z m-5585 -3 c17 -12 17 -17 5 -60 -7 -25 -16 -46
-20 -46 -17 0 -69 32 -74 45 -6 16 1 42 17 63 13 16 49 15 72 -2z m7435 0 c0
-3 -4 -8 -10 -11 -5 -3 -10 -1 -10 4 0 6 5 11 10 11 6 0 10 -2 10 -4z m184
-52 c4 -10 1 -14 -6 -12 -15 5 -23 28 -10 28 5 0 13 -7 16 -16z m-5369 -25 c0
-7 -8 -15 -17 -17 -18 -3 -25 18 -11 32 10 10 28 1 28 -15z m3152 5 c3 -8 1
-20 -6 -27 -6 -6 -11 -24 -11 -39 0 -34 -17 -37 -30 -4 -6 18 -5 34 6 55 17
34 31 39 41 15z m4338 -94 c-3 -5 -10 -10 -16 -10 -5 0 -9 5 -9 10 0 6 7 10
16 10 8 0 12 -4 9 -10z m-8993 -29 c74 -31 85 -68 27 -86 -13 -5 -18 -12 -14
-24 3 -10 -1 -24 -9 -30 -12 -10 -20 -9 -40 4 -22 15 -24 19 -11 31 33 34 25
81 -12 67 -17 -7 -18 28 -1 45 15 15 8 15 60 -7z m6978 9 c0 -12 -28 -25 -36
-17 -9 9 6 27 22 27 8 0 14 -5 14 -10z m-2119 -21 c34 -24 36 -35 9 -44 -15
-5 -19 -12 -14 -30 3 -12 1 -26 -5 -30 -6 -3 -9 -11 -5 -16 3 -5 0 -17 -8 -26
-7 -9 -18 -30 -23 -47 -9 -27 -14 -31 -44 -28 -41 3 -63 28 -55 62 7 32 51 90
68 90 17 0 26 22 26 61 0 34 12 36 51 8z m1889 -11 c18 -22 20 -22 47 -7 33
18 108 25 98 9 -3 -6 -10 -8 -15 -5 -5 3 -18 -2 -28 -11 -15 -12 -18 -24 -13
-43 9 -37 2 -81 -14 -81 -19 0 -75 49 -75 66 0 8 5 14 10 14 6 0 10 8 10 17 0
16 -1 15 -13 -1 -16 -21 -41 -13 -55 18 -7 17 -7 27 1 35 16 16 27 14 47 -11z
m2390 -51 c0 -59 -14 -91 -29 -68 -6 9 -6 24 0 39 5 14 9 32 8 41 -3 33 1 52
11 46 6 -3 10 -30 10 -58z m-2246 -97 c3 -17 14 -33 23 -36 47 -14 61 -36 29
-42 -21 -4 -85 28 -87 43 -1 5 -2 17 -3 25 -1 17 12 40 24 40 4 0 10 -14 14
-30z m-2536 8 c-3 -7 -15 -15 -28 -16 -21 -3 -22 -2 -11 12 16 19 44 21 39 4z
m-94 -58 c-14 -14 -82 -26 -69 -12 6 6 24 12 40 15 17 2 32 5 35 6 2 0 0 -3
-6 -9z"/>
<path d="M6791 8396 c12 -10 59 -15 59 -6 0 5 -14 10 -32 10 -17 0 -29 -2 -27
-4z"/>
<path d="M6920 8380 c-8 -5 -7 -9 5 -14 24 -9 45 -8 45 3 0 12 -35 20 -50 11z"/>
<path d="M5240 8350 c0 -5 5 -10 11 -10 5 0 7 5 4 10 -3 6 -8 10 -11 10 -2 0
-4 -4 -4 -10z"/>
<path d="M4960 8300 c0 -5 7 -10 16 -10 8 0 12 5 9 10 -3 6 -10 10 -16 10 -5
0 -9 -4 -9 -10z"/>
<path d="M4908 8293 c7 -3 16 -2 19 1 4 3 -2 6 -13 5 -11 0 -14 -3 -6 -6z"/>
<path d="M4928 8253 c7 -3 16 -2 19 1 4 3 -2 6 -13 5 -11 0 -14 -3 -6 -6z"/>
<path d="M4660 7835 c-8 -9 -8 -15 -2 -15 12 0 26 19 19 26 -2 2 -10 -2 -17
-11z"/>
<path d="M6850 7289 c0 -5 9 -9 20 -9 11 0 20 2 20 4 0 2 -9 6 -20 9 -11 3
-20 1 -20 -4z"/>
<path d="M6757 7282 c-3 -4 -43 -8 -89 -10 -45 -2 -87 -7 -92 -12 -6 -6 -20
-10 -33 -10 -23 0 -59 -50 -46 -64 4 -3 2 -6 -4 -6 -17 0 -25 31 -12 47 17 19
5 27 -19 12 -29 -18 -47 -60 -30 -70 7 -4 17 -5 23 -1 6 4 2 -1 -8 -10 -11
-10 -23 -18 -27 -18 -5 0 -10 8 -13 18 -3 14 -6 12 -16 -9 -11 -22 -11 -29 3
-45 8 -11 22 -28 30 -39 9 -11 16 -14 16 -7 0 6 9 12 20 12 25 0 25 9 3 26
-10 7 -14 16 -10 20 4 5 12 2 16 -5 6 -9 11 -10 15 -2 11 18 26 13 37 -12 8
-18 17 -22 39 -19 21 3 27 8 23 21 -4 13 -3 13 5 2 8 -11 16 -11 41 -3 19 7
31 7 31 1 0 -14 26 -11 40 6 7 8 16 12 21 9 5 -3 18 0 29 6 11 6 20 7 20 2 0
-4 19 -9 42 -11 23 -1 45 -4 49 -7 11 -6 119 29 119 39 0 5 -7 6 -16 3 -12 -4
-15 -2 -11 9 4 8 2 17 -3 20 -18 11 -10 23 13 18 16 -3 18 -2 8 5 -7 5 -10 15
-6 22 5 9 2 10 -11 6 -25 -8 -53 32 -32 45 10 7 10 9 -3 9 -9 0 -19 -3 -22 -6
-4 -4 -26 -8 -49 -9 -24 -2 -35 -1 -25 2 9 2 15 9 12 14 -7 11 -72 12 -78 1z
m-157 -42 c-24 -15 -37 -11 -16 5 11 8 22 12 25 9 3 -3 -1 -9 -9 -14z m-70
-70 c0 -5 -5 -10 -11 -10 -5 0 -7 5 -4 10 3 6 8 10 11 10 2 0 4 -4 4 -10z"/>
<path d="M5425 7243 c12 -8 13 -13 4 -18 -6 -4 -14 -3 -18 2 -8 13 -90 24 -96
12 -3 -4 -12 -6 -19 -3 -8 3 -17 1 -21 -5 -3 -6 -15 -11 -26 -11 -11 0 -30 -6
-42 -12 -12 -7 -38 -18 -57 -24 -28 -10 -30 -12 -12 -13 13 -1 21 -5 17 -11
-3 -6 -15 -6 -30 0 -13 5 -27 6 -29 1 -9 -15 6 -21 51 -21 23 0 42 -3 42 -7
-1 -5 0 -12 1 -18 1 -5 3 -17 4 -25 1 -15 43 -18 75 -4 14 5 13 8 -4 15 -18 8
-17 8 5 6 14 -1 24 -8 23 -15 -3 -14 13 -16 22 -2 3 6 15 10 26 10 17 0 23 12
22 48 -1 19 5 15 47 -28 22 -22 45 -40 52 -39 10 0 10 2 1 6 -7 2 -13 9 -13
14 0 6 5 7 10 4 6 -3 10 2 10 11 0 10 3 14 8 10 4 -4 7 -13 7 -19 0 -7 13 -12
28 -12 15 0 32 -6 37 -14 7 -12 11 -12 23 -2 13 10 13 15 0 42 -8 16 -28 36
-45 45 -16 8 -27 18 -24 21 8 8 76 -46 76 -60 0 -15 37 -39 44 -29 3 5 -2 22
-10 38 l-15 29 25 -24 c27 -26 25 -48 -8 -62 -19 -8 -18 -9 5 -4 19 3 31 -2
47 -20 12 -14 29 -25 37 -25 8 0 15 -9 15 -20 0 -24 8 -25 34 -5 12 9 15 15 7
15 -8 0 -24 12 -37 26 -13 14 -29 22 -34 19 -6 -3 -10 1 -10 9 0 9 -7 16 -15
16 -8 0 -15 5 -15 10 0 6 4 10 9 10 8 0 8 26 0 60 -5 18 -62 50 -92 50 -13 0
-27 3 -31 8 -4 4 -12 8 -17 8 -5 1 -11 3 -14 4 -3 1 -9 4 -15 5 -5 1 -12 4
-15 5 -3 1 -19 3 -35 4 -25 1 -28 -1 -15 -11z m129 -48 c4 -13 2 -14 -14 -5
-23 13 -26 20 -6 20 8 0 16 -7 20 -15z m-99 -15 c10 -11 16 -20 13 -20 -3 0
-13 9 -23 20 -10 11 -16 20 -13 20 3 0 13 -9 23 -20z m-147 -7 c-10 -2 -28 -2
-40 0 -13 2 -5 4 17 4 22 1 32 -1 23 -4z m342 -14 c11 -20 11 -20 -14 -4 -30
20 -32 25 -11 25 8 0 19 -9 25 -21z m-430 1 c-36 -11 -50 -11 -50 0 0 6 17 10
38 9 33 -1 34 -2 12 -9z m211 -7 c13 -16 12 -17 -3 -4 -10 7 -18 15 -18 17 0
8 8 3 21 -13z"/>
<path d="M5188 7233 c-10 -2 -18 -9 -18 -14 0 -6 10 -5 23 2 37 20 36 23 -5
12z"/>
<path d="M5064 7205 c-17 -8 -37 -22 -45 -31 -11 -15 -7 -14 22 4 20 12 53 26
75 31 35 8 36 9 9 9 -16 0 -44 -6 -61 -13z"/>
<path d="M7710 7118 c0 -4 9 -8 20 -8 11 0 20 4 20 9 0 6 -9 9 -20 8 -11 -1
-20 -5 -20 -9z"/>
<path d="M5138 7099 c13 -5 30 -5 39 -1 10 6 2 9 -24 10 -33 0 -35 -1 -15 -9z"/>
<path d="M6310 7021 c0 -5 7 -11 14 -14 10 -4 13 -1 9 9 -6 15 -23 19 -23 5z"/>
<path d="M4345 3299 c-9 -14 -2 -20 14 -10 8 6 9 11 3 15 -6 3 -14 1 -17 -5z"/>
<path d="M4263 3269 c-13 -13 -6 -42 8 -34 4 3 6 12 2 20 -4 11 -1 13 11 9 9
-3 16 -1 16 5 0 14 -23 14 -37 0z"/>
<path d="M4215 3230 c-3 -5 1 -10 10 -10 9 0 13 5 10 10 -3 6 -8 10 -10 10 -2
0 -7 -4 -10 -10z"/>
<path d="M7209 3108 c-12 -23 -12 -23 10 -4 23 21 26 26 11 26 -5 0 -15 -10
-21 -22z"/>
<path d="M8883 2973 c-18 -7 -16 -23 2 -23 8 0 15 7 15 15 0 8 -1 15 -2 14 -2
0 -9 -3 -15 -6z"/>
<path d="M8880 2920 c0 -13 11 -13 30 0 12 8 11 10 -7 10 -13 0 -23 -4 -23
-10z"/>
<path d="M2930 2634 c-24 -14 -23 -14 25 -8 60 8 84 24 35 24 -19 -1 -46 -7
-60 -16z"/>
<path d="M2788 2593 c7 -3 16 -2 19 1 4 3 -2 6 -13 5 -11 0 -14 -3 -6 -6z"/>
<path d="M2270 2319 l-25 -20 35 17 c43 20 47 24 29 24 -8 0 -25 -10 -39 -21z"/>
<path d="M2185 2280 c-3 -5 -2 -10 4 -10 5 0 13 5 16 10 3 6 2 10 -4 10 -5 0
-13 -4 -16 -10z"/>
<path d="M2084 2198 l-19 -23 23 19 c21 18 27 26 19 26 -2 0 -12 -10 -23 -22z"/>
<path d="M2050 2155 c0 -8 2 -15 4 -15 2 0 6 7 10 15 3 8 1 15 -4 15 -6 0 -10
-7 -10 -15z"/>
<path d="M2020 2125 c-8 -9 -8 -15 -2 -15 12 0 26 19 19 26 -2 2 -10 -2 -17
-11z"/>
<path d="M9497 2445 c-3 -7 2 -24 11 -35 l17 -22 20 22 c19 22 19 22 0 36 -24
18 -41 18 -48 -1z"/>
<path d="M9360 2370 c0 -5 7 -10 15 -10 8 0 15 5 15 10 0 6 -7 10 -15 10 -8 0
-15 -4 -15 -10z"/>
<path d="M2735 1781 c-22 -6 -28 -42 -8 -48 12 -4 37 32 31 46 -2 4 -12 5 -23
2z"/>
<path d="M2790 1715 c-10 -12 -10 -15 3 -15 19 0 31 16 18 24 -5 3 -14 -1 -21
-9z"/>
<path d="M2870 1700 c0 -5 5 -10 10 -10 6 0 10 5 10 10 0 6 -4 10 -10 10 -5 0
-10 -4 -10 -10z"/>
<path d="M2805 1650 c-3 -5 -1 -10 4 -10 6 0 11 5 11 10 0 6 -2 10 -4 10 -3 0
-8 -4 -11 -10z"/>
<path d="M1940 350 c0 -5 9 -10 20 -10 11 0 20 5 20 10 0 6 -9 10 -20 10 -11
0 -20 -4 -20 -10z"/>
<path d="M1960 286 c0 -13 20 -26 41 -26 5 0 9 9 9 20 0 15 -7 20 -25 20 -15
0 -25 -6 -25 -14z"/>
<path d="M2010 240 c0 -5 5 -10 11 -10 5 0 7 5 4 10 -3 6 -8 10 -11 10 -2 0
-4 -4 -4 -10z"/>
<path d="M5773 293 c-7 -2 -13 -9 -13 -15 0 -12 41 -6 41 7 1 12 -11 15 -28 8z"/>
<path d="M5720 243 c0 -5 5 -15 10 -23 7 -11 12 -12 21 -3 6 6 8 16 5 22 -8
12 -36 15 -36 4z"/>
<path d="M10092 11988 c2 -7 17 -20 34 -28 16 -8 45 -25 65 -38 48 -29 56 -28
63 12 11 60 3 66 -86 66 -59 0 -79 -3 -76 -12z"/>
<path d="M11404 11985 c24 -18 61 -18 101 0 29 13 27 13 -45 14 -68 0 -73 -1
-56 -14z"/>
<path d="M11333 11554 c-3 -9 -2 -28 3 -43 7 -20 16 -26 39 -27 47 -1 57 6 50
35 -3 14 -13 32 -22 39 -24 17 -62 15 -70 -4z"/>
<path d="M10931 11516 c-21 -12 -21 -14 -7 -28 8 -9 29 -22 45 -29 16 -7 34
-24 40 -36 9 -20 51 -34 51 -17 0 10 -28 34 -39 34 -6 0 -18 18 -27 39 -18 46
-31 53 -63 37z"/>
<path d="M11907 11304 c-9 -10 2 -24 19 -24 8 0 14 7 14 15 0 15 -21 21 -33 9z"/>
<path d="M11726 11269 c-14 -17 -26 -35 -26 -41 0 -14 34 -61 72 -98 23 -23
29 -36 23 -53 -22 -72 -22 -81 4 -114 14 -18 31 -33 38 -33 18 0 60 -60 74
-107 15 -53 6 -66 -57 -83 -48 -14 -76 -43 -80 -86 -1 -13 -10 -34 -18 -46 -9
-12 -16 -32 -16 -44 0 -19 7 -22 61 -28 l60 -7 -6 -29 c-9 -40 6 -62 52 -75
36 -11 42 -10 66 11 l27 23 0 311 0 311 -30 26 c-16 13 -30 30 -30 36 0 7 -21
27 -45 45 -24 19 -49 46 -56 61 -11 26 -49 51 -75 51 -7 0 -24 -14 -38 -31z
m191 -217 c7 -4 16 -22 19 -40 6 -28 4 -32 -15 -32 -24 0 -47 39 -38 64 7 18
16 20 34 8z"/>
<path d="M11611 11216 c-16 -19 -11 -29 8 -17 7 5 12 14 9 21 -3 9 -8 7 -17
-4z"/>
<path d="M11596 11146 c-25 -21 -46 -64 -46 -94 0 -9 9 -32 20 -50 l21 -34 29
41 c38 51 49 146 19 154 -10 3 -29 -5 -43 -17z"/>
<path d="M10830 11019 c-8 -23 -14 -62 -14 -87 -1 -56 20 -67 59 -28 45 45 31
154 -21 156 -6 0 -17 -18 -24 -41z"/>
<path d="M1810 11033 c0 -7 -6 -13 -14 -13 -7 0 -16 -13 -18 -29 -4 -24 0 -30
27 -40 43 -15 45 -15 45 17 0 26 -39 90 -40 65z"/>
<path d="M10671 11014 c-19 -13 -46 -24 -60 -24 -37 0 -104 -25 -115 -43 -7
-11 -5 -21 6 -34 8 -10 23 -33 32 -50 14 -27 22 -33 50 -33 19 0 39 7 47 16 7
9 23 20 35 24 12 5 29 23 38 41 16 32 23 130 9 128 -5 0 -23 -12 -42 -25z"/>
<path d="M11010 10943 c-21 -27 -22 -44 -4 -50 16 -5 54 36 54 57 0 28 -25 25
-50 -7z"/>
<path d="M2130 10941 c-22 -43 -2 -93 47 -116 19 -9 37 -23 40 -30 4 -12 9
-11 31 2 15 9 28 17 29 18 1 1 -2 17 -7 37 -12 41 -80 108 -110 108 -10 0 -24
-9 -30 -19z"/>
<path d="M6880 10654 c-71 -62 -118 -119 -108 -130 9 -9 130 25 148 41 21 19
55 134 43 146 -5 5 -41 -20 -83 -57z"/>
<path d="M7951 10626 c-16 -20 3 -56 29 -56 28 0 33 16 14 45 -19 29 -27 31
-43 11z"/>
<path d="M7736 10495 c3 -42 11 -56 28 -49 33 13 23 64 -15 77 -13 4 -16 -1
-13 -28z"/>
<path d="M5185 10190 c-6 -10 33 -55 41 -47 3 2 0 16 -5 31 -11 27 -25 33 -36
16z"/>
<path d="M8594 10186 c-17 -44 33 -186 66 -186 23 0 35 20 44 74 9 46 -17 116
-43 116 -9 0 -26 3 -38 6 -16 4 -25 1 -29 -10z"/>
<path d="M7083 10163 c-3 -10 -12 -25 -19 -33 -23 -27 -24 -75 -2 -89 25 -16
48 1 48 36 0 14 9 36 20 50 15 20 17 29 9 39 -16 20 -48 17 -56 -3z"/>
<path d="M7236 10153 c-7 -17 12 -46 24 -38 13 8 8 44 -6 49 -7 3 -15 -2 -18
-11z"/>
<path d="M3961 10116 c-13 -7 -30 -27 -37 -44 -11 -27 -11 -34 2 -47 22 -21
31 -19 51 15 9 17 25 32 34 35 29 10 31 35 3 45 -30 12 -24 12 -53 -4z"/>
<path d="M10393 10108 c-20 -9 -33 -48 -18 -48 18 0 65 33 65 45 0 17 -16 18
-47 3z"/>
<path d="M4102 10098 c-16 -16 -15 -38 1 -38 19 0 36 20 30 36 -6 17 -15 18
-31 2z"/>
<path d="M10233 10066 c-13 -6 -23 -18 -23 -27 0 -24 41 -32 56 -11 27 35 8
57 -33 38z"/>
<path d="M8429 10032 c-9 -2 -19 -14 -22 -28 -3 -19 -2 -22 9 -13 11 9 14 8
14 -1 0 -9 5 -8 18 3 10 10 24 17 30 17 7 0 12 4 12 9 0 10 -37 18 -61 13z"/>
<path d="M10865 10012 c-16 -12 -35 -50 -35 -72 0 -17 7 -20 45 -20 45 0 45 0
41 33 -8 61 -24 79 -51 59z"/>
<path d="M8676 9938 c-15 -21 -18 -21 -86 -8 -62 12 -72 11 -83 -2 -17 -22
-80 -40 -116 -35 -19 3 -35 0 -42 -9 -6 -8 -8 -14 -3 -14 5 0 3 -4 -5 -9 -10
-6 -10 -13 -2 -29 6 -11 10 -35 10 -53 0 -19 2 -43 5 -54 2 -11 5 -23 5 -27 2
-18 51 -58 71 -58 13 0 28 -7 35 -17 13 -17 40 -9 29 9 -5 8 -1 9 10 5 10 -4
21 -7 26 -7 5 0 10 -10 12 -22 2 -19 10 -24 44 -26 27 -2 47 2 57 12 8 8 17
12 21 9 3 -4 6 -1 6 5 0 7 6 12 13 12 15 0 53 37 87 83 23 32 25 33 50 19 22
-13 29 -13 60 2 83 39 88 49 61 119 -13 32 -20 33 -71 7 -73 -37 -107 -24
-135 52 -20 54 -39 66 -59 36z m-113 -147 c49 -54 -13 -171 -72 -134 -23 14
-51 69 -54 105 -1 24 3 35 20 43 29 15 88 7 106 -14z"/>
<path d="M9114 9843 c-5 -10 -19 -44 -29 -76 -21 -63 -16 -77 31 -77 32 0 60
-31 68 -73 4 -21 16 -47 27 -58 10 -10 19 -28 19 -40 0 -31 17 -56 47 -71 24
-12 34 -11 73 4 25 9 39 17 33 17 -20 1 -45 61 -40 95 3 17 17 61 31 99 23 60
25 72 15 115 -18 73 -21 77 -70 74 -29 -2 -58 -13 -86 -32 -23 -17 -43 -30
-46 -30 -3 0 -14 16 -26 35 -23 39 -32 43 -47 18z"/>
<path d="M9940 9722 c0 -21 47 -92 60 -92 6 0 10 -9 10 -20 0 -11 5 -20 10
-20 6 0 10 -8 10 -18 0 -11 8 -18 24 -20 33 -2 43 39 19 73 -10 13 -21 25 -25
25 -14 0 -68 60 -68 75 0 8 -9 15 -20 15 -12 0 -20 -7 -20 -18z"/>
<path d="M9463 9623 c2 -31 6 -38 32 -44 20 -6 32 -4 37 4 13 20 9 37 -9 44
-10 4 -24 13 -31 20 -22 22 -31 15 -29 -24z"/>
<path d="M9086 9478 c9 -50 47 -80 92 -73 80 13 85 15 72 30 -6 8 -18 11 -26
8 -9 -3 -14 2 -14 14 0 14 -14 23 -55 36 -74 23 -75 22 -69 -15z"/>
<path d="M8684 9053 c-3 -10 -15 -39 -26 -65 -17 -39 -19 -50 -8 -63 7 -8 9
-15 4 -16 -5 0 0 -4 11 -8 30 -13 34 -5 28 54 -4 40 -2 61 10 79 15 23 13 36
-5 36 -5 0 -11 -8 -14 -17z"/>
<path d="M0 7275 c0 -36 3 -65 8 -65 15 0 29 16 36 37 8 24 -19 93 -35 93 -5
0 -9 -29 -9 -65z"/>
<path d="M1551 7239 l-24 -10 34 -18 c19 -10 35 -27 37 -37 2 -11 13 -33 26
-48 20 -25 26 -28 51 -19 16 5 37 21 48 35 19 25 19 27 1 57 -22 37 -43 46
-62 27 -12 -12 -17 -11 -33 5 -21 21 -41 23 -78 8z"/>
<path d="M1 7171 c-1 -27 2 -32 11 -23 8 8 8 17 0 34 -10 22 -11 21 -11 -11z"/>
<path d="M7988 6877 c-30 -26 -46 -66 -29 -77 12 -7 90 -252 91 -284 0 -33 8
-13 23 58 16 76 15 97 -2 211 -14 89 -15 91 -40 104 -13 7 -24 4 -43 -12z"/>
<path d="M6825 6874 c-106 -21 -134 -30 -176 -55 -53 -33 -112 -101 -134 -153
-19 -46 -19 -61 1 -42 8 9 26 16 40 16 13 0 24 5 24 11 0 6 10 9 23 7 21 -4
22 -1 20 49 -1 42 3 55 17 63 9 5 20 6 24 3 3 -3 6 -1 6 5 0 7 5 12 10 12 6 0
10 -14 10 -31 0 -35 15 -67 44 -93 17 -14 32 -17 76 -13 80 7 108 23 122 69 9
31 9 47 -1 74 -7 20 -10 38 -7 41 3 4 6 1 6 -6 0 -8 5 -9 18 -3 22 12 61 -2
68 -25 3 -10 10 -26 15 -36 5 -10 7 -22 5 -26 -3 -5 18 -9 47 -10 28 -1 65 -4
82 -6 16 -2 32 1 36 6 3 5 22 10 42 11 20 1 37 5 37 11 0 13 -43 46 -61 47 -8
0 -44 14 -80 31 -83 41 -226 60 -314 43z"/>
<path d="M5170 6804 c-74 -13 -120 -29 -196 -64 -46 -22 -88 -40 -94 -40 -5 0
-10 -11 -10 -25 0 -21 5 -25 33 -26 17 -1 37 0 42 1 13 4 82 11 118 13 15 1
28 8 28 15 2 21 4 27 12 40 5 7 3 12 -3 12 -6 0 -4 8 6 17 10 10 28 16 42 14
14 -1 28 3 33 11 5 7 6 -2 3 -23 -8 -46 11 -104 39 -124 14 -10 45 -15 89 -15
77 0 100 16 120 81 9 31 14 36 30 30 19 -7 51 -75 40 -85 -7 -7 15 -14 67 -20
24 -3 53 -13 63 -22 28 -26 23 3 -9 49 -40 58 -127 124 -186 142 -52 16 -219
28 -267 19z"/>
<path d="M4097 6780 c-15 -18 -17 -40 -16 -148 1 -70 1 -172 2 -227 0 -95 13
-95 16 0 2 49 57 276 69 284 5 3 14 15 20 27 9 16 6 26 -14 52 -29 37 -52 40
-77 12z"/>
<path d="M576 6691 c-5 -7 -13 -10 -20 -8 -7 3 -23 -1 -37 -9 -13 -7 -34 -13
-45 -14 -12 0 -25 -7 -28 -16 -4 -10 -15 -14 -33 -12 -26 3 -28 0 -33 -36 -4
-29 -10 -40 -24 -42 -11 -1 -28 -11 -38 -22 -19 -19 -19 -20 2 -70 23 -54 41
-68 69 -52 10 5 21 7 24 4 3 -4 26 10 51 31 40 32 53 37 113 42 68 5 103 22
103 49 0 7 -13 29 -30 47 -16 19 -38 54 -48 78 -12 28 -21 39 -26 30z"/>
<path d="M4337 6573 c-4 -3 -7 -11 -7 -17 0 -6 5 -5 12 2 6 6 9 14 7 17 -3 3
-9 2 -12 -2z"/>
<path d="M7810 6566 c0 -9 -4 -16 -10 -16 -5 0 -12 -17 -16 -37 -4 -21 -11
-43 -16 -50 -7 -8 2 -15 32 -23 23 -6 48 -14 56 -17 8 -3 14 0 14 6 0 6 -7 11
-15 11 -16 0 -19 9 -9 34 3 8 12 12 20 9 19 -7 18 0 -10 49 -25 45 -46 60 -46
34z"/>
<path d="M4345 6530 c-3 -5 -1 -10 4 -10 6 0 11 5 11 10 0 6 -2 10 -4 10 -3 0
-8 -4 -11 -10z"/>
<path d="M4307 6463 c-18 -21 -25 -109 -7 -98 6 3 10 -1 10 -9 0 -17 13 -19
44 -7 14 5 16 10 8 15 -7 4 -12 19 -12 34 -1 15 -6 40 -13 55 -12 28 -13 28
-30 10z"/>
<path d="M5378 6455 c-2 -3 -38 -5 -80 -6 -41 -1 -82 -6 -89 -11 -19 -13 147
-3 181 10 15 6 18 11 9 11 -9 1 -18 -1 -21 -4z"/>
<path d="M5160 6440 c-8 -5 -10 -10 -5 -10 6 0 17 5 25 10 8 5 11 10 5 10 -5
0 -17 -5 -25 -10z"/>
<path d="M1267 6419 c4 -13 8 -18 11 -10 2 7 -1 18 -6 23 -8 8 -9 4 -5 -13z"/>
<path d="M573 6216 c2 -17 9 -32 15 -34 17 -5 15 21 -3 44 -14 18 -15 18 -12
-10z"/>
<path d="M475 6120 c-3 -5 -1 -10 4 -10 6 0 11 5 11 10 0 6 -2 10 -4 10 -3 0
-8 -4 -11 -10z"/>
<path d="M4155 6040 c10 -11 20 -20 23 -20 3 0 -3 9 -13 20 -10 11 -20 20 -23
20 -3 0 3 -9 13 -20z"/>
<path d="M6590 5871 c0 -5 5 -13 10 -16 6 -3 10 -2 10 4 0 5 -4 13 -10 16 -5
3 -10 2 -10 -4z"/>
<path d="M16 5831 c-15 -16 -24 -62 -9 -48 3 4 12 2 20 -5 11 -8 18 -6 34 11
21 23 19 35 -10 51 -14 7 -23 5 -35 -9z"/>
<path d="M4361 5598 c-46 -45 -81 -94 -81 -115 0 -8 14 -13 38 -13 41 0 53 9
113 83 36 43 71 48 105 16 l22 -21 7 21 c14 47 -28 71 -125 71 -28 0 -44 -9
-79 -42z"/>
<path d="M6367 5629 c-21 -5 -64 -26 -95 -47 -31 -20 -65 -37 -75 -37 -10 0
-22 -7 -27 -15 -8 -13 -10 -12 -10 3 0 19 1 19 -58 8 -40 -8 -47 -6 -100 30
-52 36 -63 39 -124 39 -81 0 -108 -11 -129 -53 -9 -17 -26 -34 -39 -37 l-24
-6 30 -23 c69 -54 134 -89 155 -84 11 3 24 1 28 -4 6 -10 81 -34 113 -36 9 -1
14 -5 12 -9 -3 -4 8 -8 23 -8 16 0 34 -5 40 -11 9 -9 20 -8 45 0 28 10 35 9
47 -6 9 -13 15 -14 18 -5 3 6 11 12 19 12 8 0 17 7 20 15 4 8 15 15 25 15 10
0 19 5 19 10 0 6 11 10 25 10 14 0 25 4 25 10 0 5 18 13 40 16 22 4 37 10 34
15 -3 5 4 9 15 9 12 0 29 8 39 18 11 9 38 32 60 50 54 43 56 67 6 57 -24 -4
-34 -3 -29 4 3 6 1 11 -5 11 -6 0 -8 5 -5 11 11 17 -26 49 -54 48 -14 -1 -43
-5 -64 -10z"/>
<path d="M3945 5438 c-11 -6 -21 -12 -23 -14 -7 -5 37 -43 65 -58 28 -14 83
-11 83 4 0 4 -13 13 -29 19 -15 7 -34 23 -41 37 -15 27 -25 29 -55 12z"/>
<path d="M3880 5241 c0 -14 29 -41 43 -41 22 0 40 18 34 34 -7 17 -77 23 -77
7z"/>
<path d="M6786 5167 c-15 -15 -33 -28 -39 -30 -7 -1 -15 -6 -19 -11 -3 -5 -20
-9 -38 -9 -17 0 -26 -3 -21 -7 6 -3 -3 -11 -19 -17 -17 -6 -30 -7 -30 -2 0 5
7 9 16 9 13 0 14 3 5 14 -7 9 -27 13 -54 11 -23 -1 -46 0 -52 3 -15 9 -69 10
-85 1 -40 -20 -82 -28 -107 -18 -18 7 -30 6 -40 -3 -11 -9 -16 -9 -22 1 -6 10
-14 10 -28 3 -28 -15 -393 -38 -393 -24 0 15 -91 2 -153 -23 -42 -18 -71 -23
-93 -19 -21 4 -40 0 -57 -10 -24 -17 -25 -16 -61 26 -30 35 -39 40 -46 28 -10
-16 -13 -8 -11 25 2 17 0 17 -8 5 -6 -8 -11 -11 -11 -6 0 6 -5 5 -11 -1 -8 -8
-7 -17 4 -33 14 -21 14 -25 -3 -49 -28 -38 -34 -98 -12 -110 9 -6 11 -11 5
-11 -15 0 -18 -30 -3 -30 15 0 50 -33 50 -48 0 -7 -8 -16 -17 -19 -14 -5 -11
-8 12 -15 31 -8 55 4 55 28 0 8 6 15 13 15 6 1 18 2 25 3 7 0 17 7 22 15 7 12
11 12 23 3 12 -10 18 -9 32 4 9 10 20 13 23 8 10 -13 74 -34 106 -34 15 0 35
-8 46 -17 16 -16 40 -18 217 -16 224 2 298 7 316 21 6 5 20 8 30 7 9 -2 17 0
17 4 0 8 90 46 133 55 15 4 35 15 45 26 9 11 24 20 34 20 9 0 23 6 30 13 16
16 51 30 43 18 -7 -13 55 5 69 19 7 7 15 4 26 -10 14 -18 18 -19 43 -8 15 7
27 21 27 30 0 11 5 15 14 12 8 -3 16 3 19 15 3 12 13 21 22 21 17 0 17 3 -7
83 -7 24 -17 37 -29 37 -9 0 -19 5 -21 12 -3 8 -14 2 -32 -15z m-300 -92 c5
-11 10 -13 19 -5 7 6 32 10 54 8 33 -1 40 -5 35 -17 -3 -9 -8 -24 -11 -33 -6
-20 -62 -41 -85 -33 -10 4 -17 -1 -20 -12 -3 -12 -21 -24 -46 -31 -25 -8 -43
-20 -47 -32 -4 -11 -11 -18 -16 -15 -5 4 -9 1 -9 -5 0 -6 -4 -9 -9 -5 -5 3
-12 1 -16 -5 -3 -5 -11 -10 -16 -10 -6 0 -8 4 -5 8 3 5 -9 6 -25 4 -20 -3 -33
-12 -39 -27 -7 -18 -15 -22 -47 -19 -21 2 -44 3 -50 3 -7 1 -13 8 -13 16 0 19
-10 19 -40 -2 -31 -22 -64 -28 -54 -11 5 10 4 10 -6 1 -16 -14 -40 0 -40 23 0
19 -7 18 -32 -6 -19 -18 -23 -18 -56 -4 -20 8 -41 23 -49 33 -13 19 -53 19
-53 0 0 -5 -9 -9 -20 -9 -19 0 -24 9 -21 36 1 7 -19 15 -44 18 -58 9 -78 39
-37 54 40 15 127 31 207 38 87 8 105 8 171 -1 46 -5 53 -10 60 -33 l7 -27 6
30 c7 32 -2 29 165 62 18 4 31 1 37 -8 7 -11 10 -11 21 3 8 10 31 19 58 21 25
2 49 4 53 5 4 1 10 -5 13 -13z"/>
<path d="M3945 5051 c-11 -5 -23 -7 -28 -4 -4 2 -21 -5 -37 -17 -26 -19 -30
-28 -30 -68 0 -59 9 -92 24 -92 6 0 17 -9 23 -19 10 -16 9 -20 -4 -25 -13 -5
-13 -9 -2 -22 9 -11 23 -14 45 -11 26 4 33 1 43 -19 8 -19 15 -22 28 -16 113
54 123 68 126 173 2 62 -1 73 -18 82 -11 6 -32 19 -47 29 -28 19 -88 23 -123
9z"/>
<path d="M7400 4870 c0 -5 7 -7 15 -4 8 4 15 8 15 10 0 2 -7 4 -15 4 -8 0 -15
-4 -15 -10z"/>
<path d="M7366 4814 c-8 -22 -5 -24 22 -17 25 6 25 26 0 31 -9 2 -18 -5 -22
-14z"/>
<path d="M4185 4735 c-46 -14 -55 -41 -12 -38 32 2 84 38 64 45 -6 3 -30 -1
-52 -7z"/>
<path d="M3871 4722 c-5 -10 -6 -24 -1 -31 6 -10 12 -6 24 18 14 27 15 31 2
31 -9 0 -20 -8 -25 -18z"/>
<path d="M6240 4661 c0 -7 -6 -11 -12 -8 -7 2 -21 0 -30 -4 -9 -5 -49 -10 -90
-10 -44 -1 -82 -8 -97 -16 -13 -8 -21 -11 -17 -5 7 11 -69 21 -85 12 -10 -7
-1 -42 10 -36 9 6 51 -12 51 -22 0 -5 -10 -7 -22 -5 -13 2 -30 -1 -38 -7 -13
-9 -12 -12 5 -25 11 -9 25 -13 33 -10 7 2 11 1 7 -4 -3 -5 1 -11 7 -14 10 -3
10 -9 0 -27 -16 -26 -1 -43 27 -32 14 5 14 3 2 -11 -7 -9 -27 -21 -44 -25 -21
-5 4 -8 79 -9 79 -1 117 2 141 13 17 9 37 13 43 9 5 -3 17 1 25 9 9 8 22 13
30 10 8 -4 15 -1 15 5 0 14 57 15 65 1 4 -6 15 0 27 16 16 19 18 28 9 33 -15
10 55 92 73 85 6 -2 22 5 36 16 19 14 22 22 14 30 -16 16 -60 9 -57 -10 2 -11
-7 -15 -32 -15 -36 0 -39 3 -28 31 9 23 -11 38 -34 24 -16 -10 -16 -11 0 -6 9
3 17 2 17 -3 0 -12 -39 -21 -46 -10 -3 5 -18 9 -33 9 -15 0 -32 5 -39 12 -9 9
-12 9 -12 -1z"/>
<path d="M4970 4601 c0 -6 4 -13 10 -16 6 -3 7 1 4 9 -7 18 -14 21 -14 7z"/>
<path d="M5875 4581 c-7 -12 12 -24 25 -16 11 7 4 25 -10 25 -5 0 -11 -4 -15
-9z"/>
<path d="M5851 4564 c0 -11 3 -14 6 -6 3 7 2 16 -1 19 -3 4 -6 -2 -5 -13z"/>
<path d="M7117 4513 c-4 -3 -7 -11 -7 -17 0 -6 5 -5 12 2 6 6 9 14 7 17 -3 3
-9 2 -12 -2z"/>
<path d="M5217 4480 c3 -11 7 -20 9 -20 2 0 4 9 4 20 0 11 -4 20 -9 20 -5 0
-7 -9 -4 -20z"/>
<path d="M2954 4293 c-15 -11 -15 -13 -1 -18 16 -7 57 10 57 23 0 12 -37 9
-56 -5z"/>
<path d="M6916 4275 c-16 -12 -17 -15 -4 -15 8 0 21 7 28 15 16 19 1 19 -24 0z"/>
<path d="M6530 4110 c0 -5 5 -10 10 -10 6 0 10 5 10 10 0 6 -4 10 -10 10 -5 0
-10 -4 -10 -10z"/>
<path d="M6240 4106 c0 -2 9 -6 20 -9 11 -3 20 -1 20 4 0 5 -9 9 -20 9 -11 0
-20 -2 -20 -4z"/>
<path d="M6343 4078 c-28 -13 -30 -28 -4 -28 10 0 21 9 24 20 3 11 4 20 4 19
-1 0 -12 -5 -24 -11z"/>
<path d="M5230 4060 c0 -5 5 -10 11 -10 5 0 7 5 4 10 -3 6 -8 10 -11 10 -2 0
-4 -4 -4 -10z"/>
<path d="M6608 3233 c-10 -2 -18 -9 -18 -14 0 -13 12 -11 34 6 20 15 16 17
-16 8z"/>
<path d="M5804 2835 c-8 -21 6 -41 17 -24 12 19 11 39 -1 39 -6 0 -13 -7 -16
-15z"/>
<path d="M7630 2291 c0 -5 5 -13 10 -16 6 -3 10 -2 10 4 0 5 -4 13 -10 16 -5
3 -10 2 -10 -4z"/>
<path d="M7494 683 c-18 -3 -22 -11 -22 -44 -1 -32 3 -39 18 -39 24 0 35 17
21 34 -8 10 -7 17 4 26 16 13 20 31 8 29 -5 -1 -18 -4 -29 -6z"/>
<path d="M6680 366 c0 -2 7 -7 16 -10 8 -3 12 -2 9 4 -6 10 -25 14 -25 6z"/>
<path d="M8630 276 c0 -9 5 -16 10 -16 6 0 10 4 10 9 0 6 -4 13 -10 16 -5 3
-10 -1 -10 -9z"/>
<path d="M7500 10 c0 -5 7 -10 15 -10 8 0 15 5 15 10 0 6 -7 10 -15 10 -8 0
-15 -4 -15 -10z"/>
<path d="M7665 10 c-3 -5 1 -10 10 -10 9 0 13 5 10 10 -3 6 -8 10 -10 10 -2 0
-7 -4 -10 -10z"/>
<path d="M7840 9 c0 -5 17 -9 37 -9 20 0 33 3 29 7 -11 11 -66 12 -66 2z"/>
</g>
</svg>
